<?xml version="1.0" encoding="utf-8"?>
<!-- Generator: Adobe Illustrator 26.0.1, SVG Export Plug-In . SVG Version: 6.00 Build 0)  -->
<svg version="1.1" id="Layer_1" xmlns="http://www.w3.org/2000/svg" xmlns:xlink="http://www.w3.org/1999/xlink" x="0px" y="0px"
	 viewBox="0 0 732.8 195" style="enable-background:new 0 0 732.8 195;" xml:space="preserve">
<style type="text/css">
	.st0{clip-path:url(#SVGID_00000080180916629718419760000014003090623139607192_);}
	.st1{fill:url(#SVGID_00000141429956374320952850000013103302525598763938_);}
	.st2{fill:#FFFFFF;}
</style>
<g>
	<defs>
		<rect id="SVGID_1_" y="34.1" width="160.9" height="160.9"/>
	</defs>
	<clipPath id="SVGID_00000095309409191744095720000006297064668714298805_">
		<use xlink:href="#SVGID_1_"  style="overflow:visible;"/>
	</clipPath>
	<g style="clip-path:url(#SVGID_00000095309409191744095720000006297064668714298805_);">
		
			<linearGradient id="SVGID_00000044143842622151276630000008474554864083135912_" gradientUnits="userSpaceOnUse" x1="2.5281" y1="81.4339" x2="163.5506" y2="81.4339" gradientTransform="matrix(1 0 0 -1 0 196)">
			<stop  offset="0" style="stop-color:#2E3192"/>
			<stop  offset="0.28" style="stop-color:#2968AF"/>
			<stop  offset="0.93" style="stop-color:#1CF1F8"/>
			<stop  offset="1" style="stop-color:#1BFFFF"/>
		</linearGradient>
		<path style="fill:url(#SVGID_00000044143842622151276630000008474554864083135912_);" d="M80.5,40.2v27.9c0,1.6-0.7,3.2-1.8,4.3
			c-0.6,0.6-1.3,1-2,1.3c-0.7,0.3-1.6,0.5-2.4,0.5H46.4c-1.6,0-3.2-0.6-4.3-1.8c-1.1-1.2-1.8-2.7-1.8-4.3V40.2
			c0-1.6-0.6-3.2-1.8-4.4c-1.2-1.2-2.7-1.8-4.4-1.8h-28c-1.6,0-3.2,0.6-4.4,1.8C0.6,37,0,38.6,0,40.2v27.9c0,1.6,0.6,3.2,1.8,4.4
			c1.2,1.2,2.7,1.8,4.4,1.8h27.9c1.6,0,3.2,0.7,4.3,1.8c1.2,1.2,1.8,2.7,1.8,4.3v27.9c0,1.6,0.6,3.2,1.8,4.4
			c1.2,1.2,2.7,1.8,4.4,1.8h27.9c0.8,0,1.6,0.2,2.4,0.5c0.8,0.3,1.4,0.8,2,1.3c1.2,1.2,1.8,2.7,1.8,4.3v27.9c0,1.6-0.7,3.2-1.8,4.3
			v0.1c-0.6,0.6-1.3,1-2,1.3c-0.8,0.3-1.6,0.5-2.4,0.5H46.4c-1.6,0-3.2,0.7-4.4,1.8c-1.2,1.2-1.8,2.7-1.8,4.4v27.9
			c0,1.6,0.6,3.2,1.8,4.4c1.2,1.2,2.7,1.8,4.4,1.8h28c1.6,0,3.2-0.6,4.4-1.8c1.2-1.2,1.8-2.7,1.8-4.4V161c0-1.6,0.7-3.2,1.8-4.3
			c1.2-1.1,2.7-1.8,4.3-1.8h68.2c1.6,0,3.2-0.7,4.4-1.8c1.2-1.2,1.8-2.7,1.8-4.4V40.2c0-1.6-0.6-3.2-1.8-4.4
			c-1.2-1.2-2.7-1.8-4.4-1.8H86.7c-0.8,0-1.6,0.2-2.4,0.5c-0.8,0.3-1.4,0.8-2,1.3c-0.6,0.6-1,1.3-1.3,2
			C80.6,38.6,80.5,39.4,80.5,40.2z M114.5,114.5H86.7c-1.6,0-3.2-0.6-4.3-1.8l-0.1-0.1c-1.2-1.2-1.8-2.7-1.8-4.3V80.5
			c0-1.6,0.7-3.2,1.8-4.3c1.2-1.1,2.7-1.8,4.3-1.8h27.9c1.6,0,3.2,0.6,4.4,1.8c1.2,1.2,1.8,2.7,1.8,4.4v28c0,1.6-0.7,3.2-1.8,4.3
			C117.7,113.9,116.2,114.5,114.5,114.5z"/>
	</g>
</g>
<path class="st2" d="M251.3,34.1c10.4,0,19.5,1.7,27.2,5.2c7.8,3.4,13.8,8.4,17.9,14.8c4.1,6.4,6.2,14.1,6.2,22.9
	c0,8.7-2.1,16.4-6.2,22.9c-4.1,6.4-10.1,11.4-17.9,14.8c-7.7,3.4-16.8,5.2-27.2,5.2h-27.2v34.8h-22.4V34.1H251.3z M250.2,100.9
	c9.8,0,17.2-2.1,22.2-6.2c5.1-4.1,7.6-10,7.6-17.7s-2.5-13.6-7.6-17.7c-5.1-4.1-12.5-6.2-22.2-6.2h-26.2v47.9H250.2z M355.4,61.7
	c13.5,0,23.9,3.3,31,9.8c7.2,6.4,10.8,16.2,10.8,29.3v53.9H377v-11.2c-2.6,4-6.4,7.1-11.4,9.3c-4.8,2.1-10.7,3.1-17.6,3.1
	c-6.9,0-12.9-1.1-18.1-3.4c-5.2-2.4-9.2-5.7-12.1-9.8c-2.8-4.2-4.1-9-4.1-14.3c0-8.3,3-14.9,9.1-19.8c6.2-5.1,15.9-7.6,29.1-7.6
	h23.8v-1.4c0-6.4-2-11.4-5.9-14.8c-3.8-3.4-9.5-5.2-17-5.2c-5.2,0-10.3,0.8-15.3,2.4c-4.9,1.6-9.1,3.8-12.6,6.7l-8.4-15.7
	c4.8-3.7,10.6-6.5,17.4-8.4C340.7,62.7,347.9,61.7,355.4,61.7z M352.5,140.2c5.4,0,10.2-1.2,14.3-3.6c4.2-2.5,7.2-6.1,9-10.7v-10.7
	h-22.2c-12.4,0-18.6,4.1-18.6,12.2c0,3.9,1.5,7,4.6,9.3C342.7,139.1,347,140.2,352.5,140.2z M451.6,155.9c-7.5,0-14.7-1-21.9-2.9
	c-7.1-2-12.8-4.4-17-7.4l8.3-16.4c4.1,2.8,9.1,5,14.8,6.7c5.9,1.6,11.6,2.4,17.2,2.4c12.9,0,19.3-3.4,19.3-10.2c0-3.2-1.7-5.5-5-6.7
	c-3.2-1.3-8.4-2.5-15.7-3.6c-7.6-1.1-13.8-2.5-18.6-4c-4.7-1.5-8.8-4.1-12.4-7.7c-3.4-3.8-5.2-9-5.2-15.7c0-8.7,3.6-15.7,10.8-20.8
	c7.3-5.3,17.2-7.9,29.6-7.9c6.3,0,12.6,0.7,18.9,2.2c6.3,1.4,11.5,3.3,15.5,5.7L482.1,86c-7.8-4.6-16.6-6.9-26.3-6.9
	c-6.3,0-11.1,1-14.5,2.9c-3.2,1.8-4.8,4.3-4.8,7.4c0,3.4,1.7,5.9,5.2,7.4c3.6,1.4,9,2.7,16.4,4c7.3,1.1,13.4,2.5,18.1,4
	c4.7,1.5,8.7,4,12.1,7.6c3.4,3.6,5.2,8.6,5.2,15.2c0,8.6-3.7,15.5-11.2,20.7C474.6,153.3,464.4,155.9,451.6,155.9z M552.2,155.9
	c-9.5,0-18.1-2-25.7-6c-7.6-4-13.5-9.6-17.7-16.7c-4.2-7.2-6.4-15.4-6.4-24.4s2.1-17.2,6.4-24.3c4.2-7.1,10.1-12.7,17.6-16.7
	c7.6-4,16.2-6,25.8-6c9.1,0,17,1.8,23.8,5.5c6.9,3.7,12.1,9,15.5,15.8L575,92.7c-2.6-4.2-6-7.4-10-9.5c-3.9-2.2-8.2-3.3-12.9-3.3
	c-8,0-14.7,2.6-20,7.9c-5.3,5.2-7.9,12.1-7.9,20.8s2.6,15.7,7.7,21c5.3,5.2,12,7.7,20.1,7.7c4.7,0,9-1,12.9-3.1
	c4-2.2,7.3-5.4,10-9.6l16.5,9.6c-3.6,6.9-8.8,12.2-15.7,16C569.1,154,561.2,155.9,552.2,155.9z M643.5,61.7c13.5,0,23.9,3.3,31,9.8
	c7.2,6.4,10.8,16.2,10.8,29.3v53.9H665v-11.2c-2.6,4-6.4,7.1-11.4,9.3c-4.8,2.1-10.7,3.1-17.6,3.1c-6.9,0-12.9-1.1-18.1-3.4
	c-5.2-2.4-9.2-5.7-12.1-9.8c-2.8-4.2-4.1-9-4.1-14.3c0-8.3,3-14.9,9.1-19.8c6.2-5.1,15.9-7.6,29.1-7.6h23.8v-1.4
	c0-6.4-2-11.4-5.9-14.8c-3.8-3.4-9.5-5.2-17-5.2c-5.2,0-10.3,0.8-15.3,2.4c-4.9,1.6-9.1,3.8-12.6,6.7l-8.4-15.7
	c4.8-3.7,10.6-6.5,17.4-8.4C628.8,62.7,635.9,61.7,643.5,61.7z M640.6,140.2c5.4,0,10.2-1.2,14.3-3.6c4.2-2.5,7.2-6.1,9-10.7v-10.7
	h-22.2c-12.4,0-18.6,4.1-18.6,12.2c0,3.9,1.5,7,4.6,9.3C630.8,139.1,635.1,140.2,640.6,140.2z M711.2,33.8h21.5v120.8h-21.5V33.8z"
	/>
</svg>
