<?xml version="1.0" encoding="utf-8"?>
<!-- Generator: Adobe Illustrator 26.0.1, SVG Export Plug-In . SVG Version: 6.00 Build 0)  -->
<svg version="1.1" id="Layer_1" xmlns="http://www.w3.org/2000/svg" xmlns:xlink="http://www.w3.org/1999/xlink" x="0px" y="0px"
	 viewBox="0 0 732.8 195" style="enable-background:new 0 0 732.8 195;" xml:space="preserve">
<style type="text/css">
	.st0{clip-path:url(#SVGID_00000080180916629718419760000014003090623139607192_);}
	.st1{fill:url(#SVGID_00000141429956374320952850000013103302525598763938_);}
	.st2{fill:#FFFFFF;}
</style>
<g>
	<defs>
		<rect id="SVGID_1_" y="34.1" width="160.9" height="160.9"/>
	</defs>
	<clipPath id="SVGID_00000095309409191744095720000006297064668714298805_">
		<use xlink:href="#SVGID_1_"  style="overflow:visible;"/>
	</clipPath>
	<g style="clip-path:url(#SVGID_00000095309409191744095720000006297064668714298805_);">
		
			<linearGradient id="SVGID_00000044143842622151276630000008474554864083135912_" gradientUnits="userSpaceOnUse" x1="2.5281" y1="81.4339" x2="163.5506" y2="81.4339" gradientTransform="matrix(1 0 0 -1 0 196)">
			<stop  offset="0" style="stop-color:#2E3192"/>
			<stop  offset="0.28" style="stop-color:#2968AF"/>
			<stop  offset="0.93" style="stop-color:#1CF1F8"/>
			<stop  offset="1" style="stop-color:#1BFFFF"/>
		</linearGradient>
		<path style="fill:url(#SVGID_00000044143842622151276630000008474554864083135912_);" d="M80.5,40.2v27.9c0,1.6-0.7,3.2-1.8,4.3
			c-0.6,0.6-1.3,1-2,1.3c-0.7,0.3-1.6,0.5-2.4,0.5H46.4c-1.6,0-3.2-0.6-4.3-1.8c-1.1-1.2-1.8-2.7-1.8-4.3V40.2
			c0-1.6-0.6-3.2-1.8-4.4c-1.2-1.2-2.7-1.8-4.4-1.8h-28c-1.6,0-3.2,0.6-4.4,1.8C0.6,37,0,38.6,0,40.2v27.9c0,1.6,0.6,3.2,1.8,4.4
			c1.2,1.2,2.7,1.8,4.4,1.8h27.9c1.6,0,3.2,0.7,4.3,1.8c1.2,1.2,1.8,2.7,1.8,4.3v27.9c0,1.6,0.6,3.2,1.8,4.4
			c1.2,1.2,2.7,1.8,4.4,1.8h27.9c0.8,0,1.6,0.2,2.4,0.5c0.8,0.3,1.4,0.8,2,1.3c1.2,1.2,1.8,2.7,1.8,4.3v27.9c0,1.6-0.7,3.2-1.8,4.3
			v0.1c-0.6,0.6-1.3,1-2,1.3c-0.8,0.3-1.6,0.5-2.4,0.5H46.4c-1.6,0-3.2,0.7-4.4,1.8c-1.2,1.2-1.8,2.7-1.8,4.4v27.9
			c0,1.6,0.6,3.2,1.8,4.4c1.2,1.2,2.7,1.8,4.4,1.8h28c1.6,0,3.2-0.6,4.4-1.8c1.2-1.2,1.8-2.7,1.8-4.4V161c0-1.6,0.7-3.2,1.8-4.3
			c1.2-1.1,2.7-1.8,4.3-1.8h68.2c1.6,0,3.2-0.7,4.4-1.8c1.2-1.2,1.8-2.7,1.8-4.4V40.2c0-1.6-0.6-3.2-1.8-4.4
			c-1.2-1.2-2.7-1.8-4.4-1.8H86.7c-0.8,0-1.6,0.2-2.4,0.5c-0.8,0.3-1.4,0.8-2,1.3c-0.6,0.6-1,1.3-1.3,2
			C80.6,38.6,80.5,39.4,80.5,40.2z M114.5,114.5H86.7c-1.6,0-3.2-0.6-4.3-1.8l-0.1-0.1c-1.2-1.2-1.8-2.7-1.8-4.3V80.5
			c0-1.6,0.7-3.2,1.8-4.3c1.2-1.1,2.7-1.8,4.3-1.8h27.9c1.6,0,3.2,0.6,4.4,1.8c1.2,1.2,1.8,2.7,1.8,4.4v28c0,1.6-0.7,3.2-1.8,4.3
			C117.7,113.9,116.2,114.5,114.5,114.5z"/>
	</g>
</g>
</svg>
