<?xml version="1.0" encoding="UTF-8"?>
<svg id="Layer_2" data-name="Layer 2" xmlns="http://www.w3.org/2000/svg" xmlns:xlink="http://www.w3.org/1999/xlink" viewBox="0 0 1200 1200">
  <defs>
    <style>
      .cls-1 {
        fill: url(#linear-gradient);
      }

      .cls-2 {
        fill: #fff;
      }

      .cls-3 {
        fill: url(#linear-gradient-3);
      }

      .cls-4 {
        fill: url(#linear-gradient-4);
      }

      .cls-5 {
        fill: url(#linear-gradient-2);
      }

      .cls-6 {
        fill: url(#linear-gradient-6);
      }

      .cls-7 {
        fill: url(#linear-gradient-7);
      }

      .cls-8 {
        fill: url(#linear-gradient-5);
      }
    </style>
    <linearGradient id="linear-gradient" x1="569.09" y1="27.2" x2="569.09" y2="1663.77" gradientUnits="userSpaceOnUse">
      <stop offset=".24" stop-color="#abf3ff"/>
      <stop offset=".34" stop-color="#98e0f8"/>
      <stop offset=".54" stop-color="#68aee7"/>
      <stop offset=".83" stop-color="#1c60cc"/>
      <stop offset=".87" stop-color="#1255c9"/>
    </linearGradient>
    <linearGradient id="linear-gradient-2" x1="479.98" y1="65.05" x2="500.81" y2="419.08" gradientUnits="userSpaceOnUse">
      <stop offset=".1" stop-color="#ffa140"/>
      <stop offset="1" stop-color="#f9c185"/>
    </linearGradient>
    <linearGradient id="linear-gradient-3" x1="617.1" y1="-76.49" x2="617.1" y2="1605.81" xlink:href="#linear-gradient"/>
    <linearGradient id="linear-gradient-4" x1="617.1" y1="252.29" x2="617.1" y2="1189.08" gradientUnits="userSpaceOnUse">
      <stop offset=".29" stop-color="#2ebff3"/>
      <stop offset=".4" stop-color="#2eb0e9"/>
      <stop offset=".6" stop-color="#2e8ace"/>
      <stop offset=".88" stop-color="#2e4ca4"/>
      <stop offset="1" stop-color="#2e3192"/>
    </linearGradient>
    <linearGradient id="linear-gradient-5" x1="663.95" y1="38.11" x2="663.95" y2="1393.18" xlink:href="#linear-gradient"/>
    <linearGradient id="linear-gradient-6" x1="663.95" y1="340.22" x2="663.95" y2="1048.12" xlink:href="#linear-gradient-4"/>
    <linearGradient id="linear-gradient-7" x1="663.95" y1="597.87" x2="663.95" y2="1174.53" gradientUnits="userSpaceOnUse">
      <stop offset=".04" stop-color="#2ebff3"/>
      <stop offset=".21" stop-color="#2ea4e0"/>
      <stop offset=".75" stop-color="#2e51a8"/>
      <stop offset="1" stop-color="#2e3192"/>
    </linearGradient>
  </defs>
  <g id="Layer_1-2" data-name="Layer 1">
    <g>
      <circle class="cls-2" cx="600" cy="600" r="600"/>
      <g>
        <circle class="cls-2" cx="600" cy="600" r="541.06"/>
        <g>
          <path class="cls-1" d="m1079.22,348.67c-63.06,77.07-192.13,196.24-393.16,212.45-201.49,16.28-444.8,113.5-592.92,228.48-22.1-59.02-34.19-122.9-34.19-189.61,0-54.34,8.05-106.79,22.95-156.27,67.18-21.25,135.45-30.93,209.08-41.32,76.54-10.82,162.23-22.95,256.75-50.33,10.36-3.01,20.82-6.21,31.43-9.61,139.92-44.9,249.94-121.62,326.38-189.01,72.64,49.76,132.47,116.83,173.69,195.22Z"/>
          <path class="cls-5" d="m905.54,153.46c-76.43,67.39-186.46,144.11-326.38,189.01-10.61,3.4-21.07,6.6-31.43,9.61-94.52,27.38-180.21,39.51-256.75,50.33-73.63,10.39-141.91,20.07-209.08,41.32,1.17-3.87,2.34-7.66,3.58-11.46C156.1,215.56,359.76,58.94,600.02,58.94c107.96,0,208.52,31.64,292.97,86.15,4.22,2.73,8.4,5.5,12.56,8.37Z"/>
          <path class="cls-3" d="m1141.05,600c0,55.58-8.37,109.21-23.94,159.71-45.08,16.74-113.36,1.31-158.05-12.95-27.17-8.65-57.95-18.48-98.67-24.86-164.85-25.61-246.93,39.69-326.37,102.89-41.82,33.27-81.33,64.66-133.64,84.59-56.25,21.35-146.77,29.23-220.22,31.85-36.71-45.08-66.25-96.19-87-151.63,148.11-114.99,391.42-212.2,592.92-228.48,201.03-16.21,330.1-135.38,393.16-212.45,39.48,75.09,61.82,160.6,61.82,251.33Z"/>
          <path class="cls-4" d="m1141.05,600c0,55.58-8.37,109.21-23.94,159.71-45.08,16.74-113.36,1.31-158.05-12.95-27.17-8.65-57.95-18.48-98.67-24.86-164.85-25.61-246.93,39.69-326.37,102.89-41.82,33.27-81.33,64.66-133.64,84.59-56.25,21.35-146.77,29.23-220.22,31.85-36.71-45.08-66.25-96.19-87-151.63,148.11-114.99,391.42-212.2,592.92-228.48,201.03-16.21,330.1-135.38,393.16-212.45,39.48,75.09,61.82,160.6,61.82,251.33Z"/>
          <path class="cls-8" d="m1096.18,816.04c-83.42,191.28-274.17,325.03-496.16,325.03-142.3,0-271.72-54.98-368.3-144.74,39.51-2.66,75.02-6.6,105.73-11.81,32.56-5.57,60.22-12.63,82.22-20.96,60.01-22.88,104.6-58.31,147.69-92.61,77.04-61.32,143.61-114.28,286.15-92.11,36.68,5.71,64.2,14.51,90.8,22.98,46.71,14.9,87.96,28.02,151.87,14.22Z"/>
          <path class="cls-6" d="m1096.18,816.04c-83.42,191.28-274.17,325.03-496.16,325.03-142.3,0-271.72-54.98-368.3-144.74,39.51-2.66,75.02-6.6,105.73-11.81,32.56-5.57,60.22-12.63,82.22-20.96,60.01-22.88,104.6-58.31,147.69-92.61,77.04-61.32,143.61-114.28,286.15-92.11,36.68,5.71,64.2,14.51,90.8,22.98,46.71,14.9,87.96,28.02,151.87,14.22Z"/>
          <path class="cls-7" d="m1096.18,816.04c-83.42,191.28-274.17,325.03-496.16,325.03-142.3,0-271.72-54.98-368.3-144.74,39.51-2.66,75.02-6.6,105.73-11.81,32.56-5.57,60.22-12.63,82.22-20.96,60.01-22.88,104.6-58.31,147.69-92.61,77.04-61.32,143.61-114.28,286.15-92.11,36.68,5.71,64.2,14.51,90.8,22.98,46.71,14.9,87.96,28.02,151.87,14.22Z"/>
        </g>
      </g>
    </g>
  </g>
</svg>