<?xml version="1.0" standalone="no"?>
<!DOCTYPE svg PUBLIC "-//W3C//DTD SVG 20010904//EN"
 "http://www.w3.org/TR/2001/REC-SVG-20010904/DTD/svg10.dtd">
<svg version="1.0" xmlns="http://www.w3.org/2000/svg"
 width="400.000000pt" height="400.000000pt" viewBox="0 0 400.000000 400.000000"
 preserveAspectRatio="xMidYMid meet">

<g transform="translate(0.000000,400.000000) scale(0.100000,-0.100000)"
fill="#000000" stroke="none">
<path d="M3635 1500 c23 -6 25 -8 8 -9 -12 0 -25 -6 -29 -12 -4 -8 4 -9 27 -5
30 5 31 5 10 -4 -32 -14 -21 -23 13 -10 44 16 21 49 -34 48 -23 0 -22 -1 5 -8z"/>
<path d="M3578 1479 c-2 -6 -17 -11 -33 -11 -17 0 -35 -4 -42 -10 -7 -6 -14
-5 -18 2 -3 5 -16 10 -28 10 -20 0 -20 0 -1 -15 19 -14 117 -21 148 -9 12 5
13 9 3 25 -13 22 -24 24 -29 8z"/>
<path d="M3355 1470 c-3 -6 1 -7 9 -4 18 7 21 14 7 14 -6 0 -13 -4 -16 -10z"/>
<path d="M3395 1460 c3 -5 11 -10 16 -10 6 0 7 5 4 10 -3 6 -11 10 -16 10 -6
0 -7 -4 -4 -10z"/>
<path d="M2625 1388 c22 -5 63 -7 90 -4 40 4 44 3 20 -4 -16 -5 -48 -10 -70
-11 -66 -2 -96 -9 -88 -22 4 -7 -2 -5 -13 3 -30 22 -30 24 -9 16 15 -5 17 -4
9 4 -9 9 -17 9 -32 1 -11 -6 -32 -11 -46 -11 -16 0 -26 -6 -26 -15 0 -8 -12
-18 -27 -21 -16 -4 -31 -11 -34 -17 -4 -5 -6 3 -6 18 0 14 -5 31 -11 37 -8 8
-9 5 -6 -9 6 -23 -4 -32 -53 -49 -31 -11 -65 -2 -50 13 5 4 11 2 15 -4 4 -7
13 -9 21 -4 9 6 6 10 -10 14 -14 4 -30 0 -39 -8 -9 -8 -20 -12 -25 -8 -4 5 -6
1 -3 -8 5 -11 0 -15 -15 -14 -12 1 -30 -5 -41 -14 -10 -9 -21 -16 -25 -15 -14
2 -80 -49 -74 -59 3 -6 1 -7 -6 -3 -7 4 -26 -5 -45 -21 -40 -34 -140 -111
-176 -135 -14 -10 -45 -34 -70 -53 -80 -62 -226 -144 -321 -181 -109 -42 -216
-66 -394 -89 -71 -9 -148 -19 -170 -23 l-40 -7 70 -58 c204 -169 459 -294 715
-351 284 -62 526 -60 807 9 415 101 801 376 1034 735 45 69 134 239 128 244
-2 2 -35 -1 -74 -7 -90 -13 -200 1 -360 47 -66 19 -123 32 -127 29 -5 -2 -8 0
-8 6 0 13 -105 34 -131 26 -14 -5 -19 -3 -15 3 9 14 -49 22 -189 26 -89 2
-110 0 -80 -6z m-470 -157 c3 -5 0 -13 -6 -17 -7 -4 -9 -3 -5 4 3 5 0 13 -6
15 -9 4 -10 6 -1 6 6 1 14 -3 18 -8z"/>
<path d="M2420 1370 c-11 -7 -5 -8 20 -4 43 8 51 14 19 14 -13 0 -31 -5 -39
-10z"/>
<path d="M2335 1340 c-3 -5 -1 -10 4 -10 6 0 11 5 11 10 0 6 -2 10 -4 10 -3 0
-8 -4 -11 -10z"/>
<path d="M1368 1011 c10 -6 5 -12 -18 -21 -17 -7 -33 -17 -36 -21 -6 -11 45 8
63 23 14 11 8 28 -10 28 -8 0 -8 -3 1 -9z"/>
<path d="M1405 1010 c-3 -5 -2 -10 4 -10 5 0 13 5 16 10 3 6 2 10 -4 10 -5 0
-13 -4 -16 -10z"/>
<path d="M1328 1003 c7 -3 16 -2 19 1 4 3 -2 6 -13 5 -11 0 -14 -3 -6 -6z"/>
<path d="M1078 943 c7 -3 16 -2 19 1 4 3 -2 6 -13 5 -11 0 -14 -3 -6 -6z"/>
<path d="M1158 943 c7 -3 16 -2 19 1 4 3 -2 6 -13 5 -11 0 -14 -3 -6 -6z"/>
<path d="M940 915 c-14 -8 -20 -14 -14 -15 5 0 19 7 30 15 24 18 16 19 -16 0z"/>
<path d="M1037 919 c7 -7 15 -10 18 -7 3 3 -2 9 -12 12 -14 6 -15 5 -6 -5z"/>
<path d="M980 910 c-18 -12 -2 -12 25 0 13 6 15 9 5 9 -8 0 -22 -4 -30 -9z"/>
<path d="M853 893 c9 -2 23 -2 30 0 6 3 -1 5 -18 5 -16 0 -22 -2 -12 -5z"/>
</g>
</svg>
