<svg width="201" height="200" viewBox="0 0 201 200" fill="none" xmlns="http://www.w3.org/2000/svg">
<g clip-path="url(#clip0_31_2276)">
<path d="M197.997 124.191C184.641 177.762 130.381 210.365 76.8032 197.006C23.2473 183.65 -9.3555 129.387 4.00608 75.8198C17.3559 22.242 71.6156 -10.3633 125.177 2.9924C178.752 16.3481 211.353 70.6171 197.995 124.192L197.996 124.191H197.997Z" fill="white"/>
<path d="M104 150C85.919 150 72.336 138.513 66.772 120H114V110H64.6605C64.2217 106.685 64.001 103.344 64 100C64 98.35 64.05 96.6795 64.1295 95H114V85H65.1855C68.2235 66.7625 78.05 50 104 50C123.267 50 131.658 58.2325 139.641 72.4465L148.359 67.5535C140.324 53.242 129.389 40 104 40C72.224 40 54 61.87 54 100C54 135.327 74.5605 160 104 160C129.389 160 140.324 146.758 148.359 132.446L139.641 127.554C131.658 141.768 123.267 150 104 150Z" fill="url(#paint0_linear_31_2276)"/>
</g>
<defs>
<linearGradient id="paint0_linear_31_2276" x1="55.4808" y1="100.027" x2="149.794" y2="100.027" gradientUnits="userSpaceOnUse">
<stop stop-color="#2E3192"/>
<stop offset="0.28" stop-color="#2968AF"/>
<stop offset="0.93" stop-color="#1CF1F8"/>
<stop offset="1" stop-color="#1BFFFF"/>
</linearGradient>
<clipPath id="clip0_31_2276">
<rect width="201" height="200" fill="white"/>
</clipPath>
</defs>
</svg>
