<svg width="200" height="200" viewBox="0 0 200 200" fill="none" xmlns="http://www.w3.org/2000/svg">
<g clip-path="url(#clip0_60_568)">
<mask id="mask0_60_568" style="mask-type:luminance" maskUnits="userSpaceOnUse" x="0" y="0" width="200" height="200">
<path d="M200 0H0V200H200V0Z" fill="white"/>
</mask>
<g mask="url(#mask0_60_568)">
<mask id="mask1_60_568" style="mask-type:luminance" maskUnits="userSpaceOnUse" x="0" y="0" width="200" height="200">
<path d="M200 0H0V200H200V0Z" fill="white"/>
</mask>
<g mask="url(#mask1_60_568)">
<path d="M196.997 124.191C183.641 177.762 129.381 210.365 75.8027 197.006C22.2468 183.65 -10.356 129.387 3.00559 75.8199C16.3554 22.2421 70.6151 -10.3632 124.177 2.99243C177.752 16.3482 210.353 70.6172 196.995 124.192L196.997 124.191Z" fill="#0A1017"/>
<path d="M144.095 85.7525C146.085 72.4447 135.953 65.2912 122.099 60.5191L126.593 42.4925L115.62 39.7582L111.245 57.3102C108.36 56.5907 105.398 55.9128 102.453 55.2407L106.86 37.5729L95.8936 34.8386L91.3967 52.8593C89.0094 52.3158 86.6647 51.7786 84.3899 51.2126L84.4026 51.1559L69.2701 47.377L66.351 59.0973C66.351 59.0973 74.4923 60.9635 74.3208 61.0783C78.7644 62.1874 79.5679 65.1289 79.4345 67.4605L74.3149 87.997C74.6209 88.0747 75.0178 88.1872 75.4557 88.3631C75.0896 88.2722 74.7001 88.173 74.2958 88.0762L67.1199 116.845C66.5769 118.195 65.1985 120.221 62.0917 119.452C62.2017 119.611 54.1161 117.461 54.1161 117.461L48.668 130.022L62.9481 133.582C65.6046 134.248 68.208 134.945 70.7717 135.601L66.2308 153.834L77.1914 156.568L81.6883 138.529C84.6826 139.342 87.5885 140.091 90.4333 140.798L85.9515 158.753L96.9254 161.487L101.466 143.288C120.178 146.829 134.247 145.402 140.17 128.477C144.942 114.85 139.932 106.99 130.088 101.865C137.258 100.211 142.659 95.4956 144.098 85.7539L144.095 85.7525ZM119.023 120.909C115.632 134.536 92.689 127.17 85.2506 125.323L91.2764 101.166C98.7144 103.023 122.566 106.698 119.023 120.909ZM122.417 85.555C119.323 97.9498 100.228 91.6527 94.0332 90.1086L99.4964 68.2005C105.691 69.7446 125.638 72.6265 122.417 85.555Z" fill="url(#paint0_linear_60_568)"/>
</g>
</g>
</g>
<defs>
<linearGradient id="paint0_linear_60_568" x1="50.1695" y1="98.1914" x2="145.8" y2="98.1914" gradientUnits="userSpaceOnUse">
<stop stop-color="#2E3192"/>
<stop offset="0.28" stop-color="#2968AF"/>
<stop offset="0.93" stop-color="#1CF1F8"/>
<stop offset="1" stop-color="#1BFFFF"/>
</linearGradient>
<clipPath id="clip0_60_568">
<rect width="200" height="200" fill="white"/>
</clipPath>
</defs>
</svg>
