<svg width="200" height="200" viewBox="0 0 200 200" fill="none" xmlns="http://www.w3.org/2000/svg">
<g clip-path="url(#clip0_60_579)">
<mask id="mask0_60_579" style="mask-type:luminance" maskUnits="userSpaceOnUse" x="0" y="0" width="200" height="200">
<path d="M200 0H0V200H200V0Z" fill="white"/>
</mask>
<g mask="url(#mask0_60_579)">
<mask id="mask1_60_579" style="mask-type:luminance" maskUnits="userSpaceOnUse" x="0" y="0" width="200" height="200">
<path d="M200 0H0V200H200V0Z" fill="white"/>
</mask>
<g mask="url(#mask1_60_579)">
<path d="M196.997 124.191C183.641 177.762 129.381 210.365 75.8027 197.006C22.2468 183.65 -10.356 129.387 3.0056 75.8199C16.3554 22.2421 70.6151 -10.3632 124.177 2.99243C177.752 16.3482 210.353 70.6172 196.995 124.192L196.997 124.191Z" fill="#0A1017"/>
<path d="M99.9696 30L99.0303 33.1904V125.761L99.9696 126.698L142.939 101.299L99.9696 30Z" fill="url(#paint0_linear_60_579)"/>
<path d="M99.9696 30L99.0303 33.1904V125.761L99.9696 126.698L142.939 101.299L99.9696 30Z" fill="black" fill-opacity="0.2"/>
<path d="M99.9706 30L57 101.299L99.9706 126.698V81.7671V30Z" fill="url(#paint1_linear_60_579)"/>
<path d="M99.9698 134.834L99.4404 135.479V168.455L99.9698 170L142.966 109.447L99.9698 134.834Z" fill="url(#paint2_linear_60_579)"/>
<path d="M99.9698 134.834L99.4404 135.479V168.455L99.9698 170L142.966 109.447L99.9698 134.834Z" fill="black" fill-opacity="0.2"/>
<path d="M99.9706 170V134.834L57 109.447L99.9706 170Z" fill="url(#paint3_linear_60_579)"/>
<path d="M99.7002 126.732L142.67 101.332L99.7002 81.8004V126.732Z" fill="url(#paint4_linear_60_579)"/>
<path d="M99.7002 126.732L142.67 101.332L99.7002 81.8004V126.732Z" fill="black" fill-opacity="0.3"/>
<path d="M57 101.299L99.9706 126.698V81.7671L57 101.299Z" fill="url(#paint5_linear_60_579)"/>
<path d="M57 101.299L99.9706 126.698V81.7671L57 101.299Z" fill="black" fill-opacity="0.2"/>
</g>
</g>
</g>
<defs>
<linearGradient id="paint0_linear_60_579" x1="99.7194" y1="78.371" x2="143.607" y2="78.371" gradientUnits="userSpaceOnUse">
<stop stop-color="#2E3192"/>
<stop offset="0.28" stop-color="#2968AF"/>
<stop offset="0.93" stop-color="#1CF1F8"/>
<stop offset="1" stop-color="#1BFFFF"/>
</linearGradient>
<linearGradient id="paint1_linear_60_579" x1="57.6743" y1="78.371" x2="100.624" y2="78.371" gradientUnits="userSpaceOnUse">
<stop stop-color="#2E3192"/>
<stop offset="0.28" stop-color="#2968AF"/>
<stop offset="0.93" stop-color="#1CF1F8"/>
<stop offset="1" stop-color="#1BFFFF"/>
</linearGradient>
<linearGradient id="paint2_linear_60_579" x1="100.123" y1="139.737" x2="143.628" y2="139.737" gradientUnits="userSpaceOnUse">
<stop stop-color="#2E3192"/>
<stop offset="0.28" stop-color="#2968AF"/>
<stop offset="0.93" stop-color="#1CF1F8"/>
<stop offset="1" stop-color="#1BFFFF"/>
</linearGradient>
<linearGradient id="paint3_linear_60_579" x1="57.6743" y1="139.737" x2="100.624" y2="139.737" gradientUnits="userSpaceOnUse">
<stop stop-color="#2E3192"/>
<stop offset="0.28" stop-color="#2968AF"/>
<stop offset="0.93" stop-color="#1CF1F8"/>
<stop offset="1" stop-color="#1BFFFF"/>
</linearGradient>
<linearGradient id="paint4_linear_60_579" x1="100.375" y1="104.276" x2="143.323" y2="104.276" gradientUnits="userSpaceOnUse">
<stop stop-color="#2E3192"/>
<stop offset="0.28" stop-color="#2968AF"/>
<stop offset="0.93" stop-color="#1CF1F8"/>
<stop offset="1" stop-color="#1BFFFF"/>
</linearGradient>
<linearGradient id="paint5_linear_60_579" x1="57.6743" y1="104.243" x2="100.624" y2="104.243" gradientUnits="userSpaceOnUse">
<stop stop-color="#2E3192"/>
<stop offset="0.28" stop-color="#2968AF"/>
<stop offset="0.93" stop-color="#1CF1F8"/>
<stop offset="1" stop-color="#1BFFFF"/>
</linearGradient>
<clipPath id="clip0_60_579">
<rect width="200" height="200" fill="white"/>
</clipPath>
</defs>
</svg>
