<svg width="200" height="200" viewBox="0 0 200 200" fill="none" xmlns="http://www.w3.org/2000/svg">
<g clip-path="url(#clip0_31_2249)">
<path d="M196.997 124.191C183.641 177.762 129.381 210.365 75.8032 197.006C22.2473 183.65 -10.3555 129.387 3.00608 75.8198C16.3559 22.242 70.6156 -10.3633 124.177 2.9924C177.752 16.3481 210.353 70.6171 196.995 124.192L196.996 124.191H196.997Z" fill="white"/>
<path d="M144.096 85.7525C146.086 72.4447 135.954 65.2912 122.1 60.5191L126.594 42.4925L115.621 39.7582L111.246 57.3102C108.361 56.5907 105.399 55.9128 102.454 55.2407L106.861 37.5729L95.8945 34.8386L91.3976 52.8593C89.0103 52.3158 86.6656 51.7786 84.3908 51.2126L84.4035 51.1559L69.271 47.377L66.3519 59.0973C66.3519 59.0973 74.4932 60.9635 74.3217 61.0783C78.7653 62.1874 79.5688 65.1289 79.4354 67.4605L74.3158 87.997C74.6218 88.0747 75.0187 88.1872 75.4566 88.3631C75.0905 88.2722 74.701 88.173 74.2967 88.0762L67.1208 116.845C66.5778 118.195 65.1994 120.221 62.0926 119.452C62.2026 119.611 54.117 117.461 54.117 117.461L48.6689 130.022L62.949 133.582C65.6055 134.248 68.2089 134.945 70.7726 135.601L66.2317 153.834L77.1923 156.568L81.6892 138.529C84.6835 139.342 87.5894 140.091 90.4342 140.798L85.9524 158.753L96.9263 161.487L101.467 143.288C120.179 146.829 134.248 145.402 140.171 128.477C144.943 114.85 139.933 106.99 130.089 101.865C137.259 100.211 142.66 95.4956 144.099 85.7539L144.096 85.7515L144.096 85.7525ZM119.024 120.909C115.633 134.536 92.6899 127.17 85.2515 125.323L91.2773 101.166C98.7153 103.023 122.568 106.698 119.025 120.909H119.024ZM122.418 85.555C119.324 97.9498 100.229 91.6527 94.0341 90.1086L99.4973 68.2005C105.692 69.7446 125.64 72.6265 122.419 85.555H122.418Z" fill="url(#paint0_linear_31_2249)"/>
</g>
<defs>
<linearGradient id="paint0_linear_31_2249" x1="50.1704" y1="98.1914" x2="145.801" y2="98.1914" gradientUnits="userSpaceOnUse">
<stop stop-color="#2E3192"/>
<stop offset="0.28" stop-color="#2968AF"/>
<stop offset="0.93" stop-color="#1CF1F8"/>
<stop offset="1" stop-color="#1BFFFF"/>
</linearGradient>
<clipPath id="clip0_31_2249">
<rect width="200" height="200" fill="white"/>
</clipPath>
</defs>
</svg>
