<?xml version="1.0" encoding="utf-8"?>
<!-- Generator: Adobe Illustrator 26.0.1, SVG Export Plug-In . SVG Version: 6.00 Build 0)  -->
<svg version="1.1" id="Layer_1" xmlns="http://www.w3.org/2000/svg" xmlns:xlink="http://www.w3.org/1999/xlink" x="0px" y="0px"
	 viewBox="0 0 1000 1000" style="enable-background:new 0 0 1000 1000;" xml:space="preserve">
<style type="text/css">
	.st0{fill:#FFFFFF;}
	.st1{clip-path:url(#SVGID_00000157274163949490640230000013534971335675541675_);}
	.st2{fill:url(#SVGID_00000001639393213565454470000006987631059939260307_);}
</style>
<circle class="st0" cx="500" cy="500" r="500"/>
<g>
	<defs>
		<rect id="SVGID_1_" x="207.6" y="207.6" width="584.7" height="584.7"/>
	</defs>
	<clipPath id="SVGID_00000012445697397194749070000002148369596354038167_">
		<use xlink:href="#SVGID_1_"  style="overflow:visible;"/>
	</clipPath>
	<g style="clip-path:url(#SVGID_00000012445697397194749070000002148369596354038167_);">
		
			<linearGradient id="SVGID_00000052098734570191066590000002452251576055842953_" gradientUnits="userSpaceOnUse" x1="216.8248" y1="1521.9243" x2="801.961" y2="1521.9243" gradientTransform="matrix(1 0 0 -1 0 2022)">
			<stop  offset="0" style="stop-color:#2E3192"/>
			<stop  offset="0.28" style="stop-color:#2968AF"/>
			<stop  offset="0.93" style="stop-color:#1CF1F8"/>
			<stop  offset="1" style="stop-color:#1BFFFF"/>
		</linearGradient>
		<path style="fill:url(#SVGID_00000052098734570191066590000002452251576055842953_);" d="M500,230v101.4c0,5.9-2.4,11.6-6.5,15.8
			c-2.1,2.1-4.6,3.7-7.3,4.9c-2.7,1.1-5.6,1.7-8.6,1.7H376.4c-5.9,0-11.6-2.4-15.8-6.5c-4.2-4.2-6.5-9.8-6.5-15.8V230
			c0-5.9-2.4-11.6-6.6-15.8c-4.2-4.2-9.9-6.6-15.8-6.6H230c-5.9,0-11.6,2.4-15.8,6.6c-4.2,4.2-6.6,9.9-6.6,15.8v101.5
			c0,5.9,2.4,11.6,6.6,15.8c4.2,4.2,9.9,6.6,15.8,6.6h101.4c5.9,0,11.6,2.4,15.8,6.5c4.2,4.2,6.5,9.9,6.5,15.8v101.4
			c0,5.9,2.4,11.6,6.6,15.8c4.2,4.2,9.9,6.6,15.8,6.6h101.4c3,0,5.9,0.6,8.6,1.7c2.7,1.1,5.2,2.8,7.3,4.9c4.2,4.2,6.5,9.9,6.5,15.8
			v101.2c0,5.9-2.4,11.6-6.5,15.8v0.2c-2.1,2.1-4.6,3.7-7.3,4.9c-2.7,1.1-5.7,1.7-8.6,1.7H376.3c-5.9,0-11.6,2.4-15.8,6.6
			c-4.2,4.2-6.6,9.9-6.6,15.8v101.5c0,5.9,2.4,11.6,6.6,15.8c4.2,4.2,9.9,6.6,15.8,6.6h101.6c5.9,0,11.6-2.4,15.8-6.6
			c4.2-4.2,6.6-9.9,6.6-15.8V668.6c0-5.9,2.4-11.6,6.6-15.8c4.2-4.2,9.9-6.5,15.8-6.5h247.7c5.9,0,11.6-2.4,15.8-6.6
			c4.2-4.2,6.6-9.9,6.6-15.8V230c0-5.9-2.4-11.6-6.6-15.8c-4.2-4.2-9.9-6.6-15.8-6.6H522.6c-3,0-5.9,0.5-8.6,1.7
			c-2.7,1.1-5.2,2.8-7.3,4.8c-2.1,2.1-3.8,4.6-4.9,7.3C500.6,224.1,500,227,500,230z M623.9,500H522.6c-5.9,0-11.6-2.3-15.8-6.5
			l-0.2-0.2c-4.2-4.2-6.6-9.9-6.6-15.8V376.2c0-5.9,2.4-11.6,6.5-15.8c4.2-4.2,9.8-6.5,15.8-6.5h101.4c5.9,0,11.6,2.4,15.8,6.6
			c4.2,4.2,6.6,9.9,6.6,15.8v101.6c-0.1,5.9-2.5,11.5-6.6,15.6C635.3,497.6,629.7,500,623.9,500z"/>
	</g>
</g>
</svg>
