<?xml version="1.0" standalone="no"?>
<!DOCTYPE svg PUBLIC "-//W3C//DTD SVG 20010904//EN"
 "http://www.w3.org/TR/2001/REC-SVG-20010904/DTD/svg10.dtd">
<svg version="1.0" xmlns="http://www.w3.org/2000/svg"
 width="1080.000000pt" height="1080.000000pt" viewBox="0 0 1080.000000 1080.000000"
 preserveAspectRatio="xMidYMid meet">
<metadata>
Created by potrace 1.16, written by Peter Selinger 2001-2019
</metadata>
<g transform="translate(0.000000,1080.000000) scale(0.100000,-0.100000)"
fill="#000000" stroke="none">
<path d="M5130 10651 c-247 -24 -407 -44 -420 -52 -10 -6 -5 -7 15 -4 189 29
687 58 845 50 727 -39 1339 -185 1905 -455 44 -21 112 -53 150 -71 57 -27 164
-86 370 -203 228 -130 595 -407 828 -626 181 -170 312 -311 462 -495 149 -183
159 -185 21 -5 -109 142 -203 244 -402 441 -234 230 -311 298 -524 460 -115
87 -363 259 -374 259 -2 0 -53 29 -113 64 -313 182 -600 315 -883 409 -223 75
-633 164 -885 193 -71 8 -143 20 -160 26 -36 12 -725 19 -835 9z"/>
<path d="M5340 10480 l52 -60 -37 -48 c-21 -26 -47 -55 -58 -64 -19 -17 -18
-18 27 -18 33 0 44 4 40 13 -2 7 8 27 22 45 l27 33 29 -28 c15 -15 28 -35 28
-45 0 -15 8 -18 44 -18 l44 0 -30 33 c-17 17 -42 47 -56 65 -28 37 -30 31 47
115 l35 37 -46 0 c-39 0 -45 -3 -41 -18 2 -10 -6 -27 -22 -42 l-27 -25 -24 30
c-13 17 -22 36 -19 43 3 8 -9 12 -41 12 l-46 0 52 -60z"/>
<path d="M4969 10523 l-45 -4 8 -67 c4 -37 10 -93 14 -124 5 -53 7 -58 30 -58
23 0 24 3 22 52 l-3 53 55 6 c77 8 95 16 108 45 17 37 15 52 -13 79 -25 26
-47 28 -176 18z"/>
<path d="M5691 10448 c-3 -46 -5 -101 -5 -123 l-1 -40 75 -6 c126 -10 178 22
182 113 4 91 -35 122 -167 133 l-80 7 -4 -84z m150 32 c48 -14 65 -51 49 -109
-6 -22 -19 -45 -30 -51 -20 -11 -73 -13 -105 -4 -21 5 -21 3 -6 167 1 10 49 9
92 -3z"/>
<path d="M4650 10500 c0 -11 -6 -20 -14 -20 -7 0 -25 -9 -40 -21 -53 -42 -22
-109 51 -109 33 0 36 -6 33 -67 -1 -10 -52 -4 -66 8 -14 11 -24 1 -24 -22 0
-14 11 -20 50 -25 32 -4 50 -11 50 -20 0 -16 2 -16 24 -8 8 3 12 12 9 20 -3 8
5 18 22 24 39 15 55 35 55 69 0 36 -31 61 -76 61 -26 0 -33 5 -38 25 -9 37 -1
45 36 35 34 -10 48 -6 48 15 0 10 -17 17 -50 21 -32 4 -50 11 -50 20 0 8 -4
14 -10 14 -5 0 -10 -9 -10 -20z"/>
<path d="M4125 10475 c-5 -2 -50 -15 -100 -30 -103 -31 -221 -71 -250 -85 -11
-5 -40 -16 -65 -24 -54 -18 -171 -65 -185 -75 -5 -4 -28 -13 -50 -20 -91 -30
-594 -292 -603 -313 -2 -4 -9 -8 -15 -8 -6 0 -27 -11 -46 -24 -20 -12 -76 -49
-126 -81 -81 -53 -363 -259 -375 -275 -3 -3 -23 -19 -44 -36 -194 -145 -561
-516 -733 -740 -115 -152 -159 -210 -197 -266 -21 -31 -51 -71 -67 -90 -26
-30 -25 -26 12 46 22 43 36 75 30 72 -22 -14 -223 -355 -301 -511 -19 -39 -38
-71 -42 -73 -5 -2 -8 -8 -8 -13 0 -4 -23 -56 -50 -113 -142 -296 -289 -732
-351 -1034 -10 -50 -28 -136 -39 -190 -24 -115 -47 -322 -54 -482 -7 -154 0
-120 14 63 5 81 17 182 25 225 8 42 21 115 29 162 26 147 91 425 106 452 6 10
10 24 10 31 0 17 69 228 79 242 4 6 13 29 20 52 6 23 16 45 20 48 5 3 3 -19
-5 -47 -8 -29 -26 -93 -39 -143 -13 -49 -28 -103 -35 -120 -11 -28 -40 -169
-40 -190 0 -5 6 -1 12 10 11 19 11 19 19 0 7 -19 8 -19 8 -1 1 17 4 16 27 -8
27 -26 58 -34 68 -17 7 10 88 -5 96 -18 3 -5 23 -10 46 -12 32 -3 41 -1 40 11
-1 9 6 14 16 12 10 -2 18 2 18 8 0 6 5 8 12 4 6 -4 8 -3 5 3 -4 6 0 16 8 23 8
7 15 21 15 31 0 11 4 27 10 37 5 9 33 87 61 172 82 247 158 427 293 690 108
211 316 543 433 690 83 105 98 123 108 134 6 6 32 38 60 71 87 104 323 341
447 447 127 110 367 286 598 439 77 51 140 99 140 106 0 7 -11 47 -25 88 -14
42 -28 94 -31 118 -3 23 -10 46 -15 51 -12 13 -11 39 1 31 5 -3 7 0 4 9 -7 19
40 49 236 147 173 86 184 91 325 150 87 36 412 148 470 162 l20 5 -20 0 c-11
0 -24 -1 -30 -3z"/>
<path d="M6169 10473 c-14 -2 -41 -16 -58 -31 -26 -22 -34 -37 -38 -74 -9 -82
49 -138 142 -138 70 0 95 9 95 32 0 16 -4 18 -22 11 -13 -4 -45 -8 -71 -8 -41
0 -53 5 -73 28 -44 51 -24 123 39 143 32 10 86 -5 112 -32 21 -21 29 -23 40
-14 12 10 10 15 -13 34 -49 41 -97 56 -153 49z"/>
<path d="M5120 10180 c-163 -13 -431 -47 -583 -75 -188 -34 -491 -119 -712
-200 -55 -20 -111 -40 -125 -45 -42 -13 -327 -145 -370 -170 -8 -4 -73 -41
-145 -81 -495 -275 -909 -631 -1275 -1094 -39 -49 -76 -97 -83 -105 -25 -32
-166 -249 -217 -335 -29 -49 -61 -101 -70 -115 -10 -14 -26 -44 -37 -65 -11
-22 -48 -95 -81 -162 -34 -68 -62 -125 -62 -129 0 -3 -6 -20 -14 -37 -161
-357 -302 -877 -319 -1172 -2 -44 -2 -63 0 -43 5 44 25 42 50 -6 16 -31 16
-31 26 -8 13 29 45 29 49 0 2 -13 13 24 26 82 13 58 28 119 34 135 5 17 16 55
23 85 31 131 66 252 100 350 170 493 427 976 710 1340 27 36 55 72 62 80 31
40 121 149 148 179 25 28 234 235 311 308 47 44 191 161 254 206 82 59 395
266 501 332 44 28 89 60 99 73 10 12 20 22 23 22 3 0 35 21 71 48 125 92 118
87 276 174 144 79 183 97 272 127 268 87 570 148 958 192 249 28 604 30 820 5
80 -9 186 -21 235 -27 147 -16 398 -67 570 -116 258 -72 573 -204 770 -321
105 -62 155 -94 155 -98 0 -2 -50 21 -111 52 -110 55 -143 62 -101 24 12 -12
22 -24 22 -28 0 -4 20 -29 45 -55 25 -27 48 -54 52 -61 7 -12 97 -73 148 -100
22 -13 193 -127 270 -182 151 -107 232 -173 316 -255 108 -104 101 -106 -21
-3 -147 123 -446 329 -632 434 -414 233 -845 389 -1316 475 -73 13 -136 26
-140 29 -4 2 -106 14 -227 27 -297 31 -579 31 -880 0 -120 -12 -223 -25 -227
-27 -4 -3 -67 -16 -140 -29 -186 -33 -256 -48 -388 -85 -63 -18 -144 -41 -180
-51 -77 -21 -202 -64 -247 -85 -17 -7 -34 -14 -38 -14 -33 0 -454 -201 -555
-265 -22 -14 -42 -25 -45 -25 -3 0 -18 -8 -33 -19 -15 -10 -67 -45 -117 -77
-209 -136 -324 -226 -504 -393 -160 -148 -206 -194 -331 -340 -72 -84 -300
-386 -300 -397 0 -3 -13 -24 -28 -47 -53 -78 -80 -122 -148 -242 -61 -110
-204 -396 -204 -410 0 -4 -12 -32 -26 -63 -15 -31 -37 -86 -50 -122 -14 -36
-29 -74 -34 -85 -5 -11 -16 -45 -25 -75 -9 -30 -20 -64 -25 -75 -15 -35 -52
-167 -77 -275 -53 -230 -69 -329 -104 -650 -16 -141 -16 -603 -1 -720 6 -47
16 -137 22 -200 6 -63 20 -167 31 -230 22 -123 97 -426 123 -500 9 -25 18 -52
20 -60 11 -45 80 -229 121 -325 107 -250 236 -489 361 -670 23 -33 52 -76 65
-95 239 -349 625 -731 1013 -1003 48 -34 94 -66 100 -72 6 -5 25 -18 41 -28
17 -9 65 -38 108 -65 86 -52 225 -129 302 -168 28 -13 57 -29 65 -34 29 -18
216 -102 305 -136 49 -20 104 -41 120 -49 34 -15 247 -87 345 -117 88 -26 270
-64 415 -87 66 -11 147 -24 180 -30 33 -5 160 -16 283 -22 340 -18 588 0 997
72 331 59 676 168 965 306 161 77 224 108 250 125 14 9 50 29 80 45 83 44 113
61 233 141 61 39 114 72 118 72 4 0 9 4 11 8 2 4 19 19 38 32 220 153 539 440
727 655 66 75 261 330 272 355 7 16 62 102 71 110 16 15 128 214 195 350 42
85 89 180 104 210 16 30 34 71 41 90 7 19 24 59 37 88 12 29 23 55 23 58 0 3
6 20 14 37 8 18 29 77 46 132 17 55 38 118 46 140 7 22 20 69 29 105 8 36 22
85 30 110 l15 45 -5 -50 c-13 -113 -80 -342 -156 -535 -67 -171 -79 -199 -89
-218 -5 -9 -45 -90 -90 -180 -126 -256 -181 -348 -355 -598 -149 -213 -366
-451 -579 -635 -21 -19 -57 -50 -80 -70 -127 -111 -413 -319 -626 -455 -84
-53 -417 -222 -554 -281 -89 -38 -112 -53 -79 -53 16 0 20 -5 16 -18 -2 -11 2
-35 11 -55 14 -34 14 -37 -2 -37 -13 0 -14 -2 -4 -9 10 -6 1 -14 -30 -28 -61
-29 -305 -106 -418 -133 -52 -12 -120 -28 -150 -36 -57 -14 -149 -32 -305 -58
-49 -9 -193 -25 -320 -37 -440 -41 -884 -6 -1315 102 -121 30 -387 113 -480
149 -30 12 -80 30 -110 41 -30 10 -68 26 -85 34 -16 8 -84 40 -150 71 -66 31
-121 60 -123 65 -2 5 -10 9 -18 9 -11 0 -239 113 -279 138 -6 4 0 -3 14 -15
13 -12 36 -27 50 -34 14 -8 42 -23 61 -35 56 -34 227 -122 320 -164 47 -21
138 -63 203 -94 65 -31 122 -56 128 -56 5 0 27 -9 48 -20 171 -87 597 -192
941 -232 180 -21 778 -18 950 5 192 25 551 100 710 148 74 22 142 42 150 44
33 7 341 129 415 165 11 5 91 43 177 84 146 69 427 221 438 236 3 4 23 17 45
29 44 23 151 97 294 204 165 123 404 342 601 553 321 342 659 880 832 1324 44
112 145 410 152 450 4 19 11 44 16 55 6 11 19 61 30 110 12 50 30 131 41 180
12 50 30 140 41 200 32 177 30 168 40 154 7 -10 8 -8 4 6 -3 11 -2 34 3 50 l8
30 7 -35 c8 -38 -8 -199 -24 -240 -5 -14 -18 -74 -29 -135 -26 -137 -53 -258
-81 -355 -68 -239 -70 -244 -168 -500 -78 -204 -199 -445 -331 -660 -37 -60
-133 -209 -145 -225 -9 -11 -42 -56 -74 -100 -32 -44 -77 -105 -99 -135 -22
-30 -51 -67 -64 -81 -13 -14 -33 -37 -44 -51 -36 -46 -139 -161 -181 -203 -23
-22 -44 -48 -47 -58 -4 -9 -13 -17 -22 -17 -29 0 -15 -15 31 -34 40 -16 61
-18 162 -12 69 4 124 12 136 20 12 7 33 15 47 18 21 4 25 1 22 -13 -3 -10 -15
-20 -27 -22 l-21 -4 21 -2 c13 0 28 9 39 25 10 15 22 23 31 20 8 -3 14 1 14 9
0 8 4 15 9 15 11 0 68 55 111 109 19 24 42 50 51 60 33 34 329 435 329 446 0
2 22 37 48 77 65 98 84 129 132 223 23 44 48 87 56 96 8 8 14 18 14 22 0 3 27
63 61 133 187 391 317 813 399 1294 22 130 41 345 31 348 -6 2 -11 16 -11 30
0 16 -3 22 -8 15 -11 -18 -216 -9 -264 11 -20 9 -40 21 -44 28 -5 7 -7 132 -5
278 6 612 -57 1051 -222 1550 -68 203 -95 273 -168 428 -21 46 -39 88 -39 93
0 16 -124 256 -186 360 -124 207 -303 456 -404 561 -19 20 -53 58 -75 85 -132
160 -472 477 -680 633 -220 166 -650 409 -940 532 -91 38 -225 88 -238 88 -7
0 -17 4 -23 9 -10 9 -180 64 -259 82 -27 7 -54 15 -60 20 -5 4 -39 12 -75 19
-36 6 -72 15 -81 20 -48 25 -490 93 -724 110 -127 10 -510 10 -635 0z m645
-1215 c175 -18 408 -63 625 -120 72 -19 244 -72 275 -85 11 -5 67 -28 125 -50
58 -23 110 -45 115 -49 6 -4 26 -14 45 -21 119 -47 348 -195 625 -402 40 -30
235 -221 235 -230 0 -5 -327 -8 -727 -8 l-727 0 -53 -32 c-29 -18 -53 -35 -53
-38 0 -4 -19 -4 -42 -1 -35 5 -44 12 -63 45 -12 21 -32 50 -45 63 -13 13 -20
30 -16 39 3 8 2 13 -3 10 -4 -3 -13 13 -20 34 -6 22 -15 40 -20 40 -4 0 -16
18 -26 40 -10 22 -22 40 -28 40 -5 0 -4 7 3 15 10 12 7 18 -20 32 -17 10 -41
26 -52 35 -26 22 -95 32 -159 24 -62 -8 -97 -23 -127 -54 -21 -22 -24 -23 -35
-8 -11 16 -15 15 -37 -9 -18 -20 -21 -28 -12 -34 18 -11 -10 -33 -32 -25 -23
9 -48 -15 -41 -37 4 -11 2 -19 -3 -19 -5 0 -15 -18 -22 -40 -7 -22 -17 -40
-22 -40 -4 0 -8 -11 -8 -25 0 -14 -7 -28 -15 -31 -9 -4 -15 -19 -15 -39 0 -18
-7 -38 -15 -45 -8 -7 -13 -16 -10 -20 3 -4 -2 -56 -10 -116 -19 -133 -23 -470
-6 -579 6 -44 17 -142 24 -218 l13 -137 -23 -22 c-13 -12 -23 -27 -23 -34 0
-12 58 -44 82 -44 20 0 80 39 105 69 13 14 23 21 23 16 0 -23 -83 -95 -116
-101 -91 -17 -128 10 -260 186 -35 47 -72 95 -82 107 -9 12 -48 65 -87 118
-38 53 -99 135 -135 183 -36 48 -95 128 -130 177 -36 50 -69 95 -75 102 -9 11
-42 56 -156 218 -27 39 -53 75 -58 81 -6 7 -158 13 -472 18 -469 7 -569 11
-569 27 0 5 228 9 515 9 337 0 515 3 515 10 0 6 -61 10 -162 11 -365 2 -702
16 -730 30 -25 13 -26 16 -27 112 -2 110 7 199 19 192 4 -3 7 6 6 19 -1 21 -3
22 -26 12 -43 -18 -220 -141 -305 -211 -115 -94 -203 -157 -215 -153 -12 4
184 181 289 259 42 32 83 64 91 72 8 8 26 20 40 27 14 7 27 16 30 20 7 9 151
99 228 143 122 69 367 185 457 217 286 100 378 127 622 182 53 12 90 25 87 30
-4 6 2 8 14 4 12 -4 67 -2 124 4 259 28 542 29 783 5z m2038 -982 c60 -5 68
-8 65 -25 -3 -19 -21 -20 -765 -21 -420 -1 -763 0 -763 3 1 18 31 39 61 43 57
7 1329 7 1402 0z m107 -121 c0 -9 21 -32 46 -51 44 -33 134 -131 134 -145 0
-9 72 -100 83 -104 4 -2 7 -8 7 -12 0 -5 28 -49 63 -99 34 -50 74 -109 88
-133 30 -49 150 -285 172 -338 46 -112 57 -140 57 -154 0 -9 3 -16 8 -16 4 0
15 -28 25 -63 11 -34 22 -71 27 -82 4 -11 13 -40 19 -65 6 -25 18 -67 26 -95
49 -168 95 -561 95 -818 0 -169 -25 -506 -46 -622 -50 -275 -131 -549 -215
-733 -23 -48 -54 -116 -70 -151 -41 -88 -109 -205 -198 -341 -91 -139 -67
-108 -298 -382 -26 -30 -43 -60 -43 -75 0 -25 0 -26 -20 -8 -11 10 -20 22 -20
26 0 7 -331 433 -399 515 -14 16 -37 45 -51 64 -14 18 -54 70 -90 114 -36 45
-78 99 -95 120 -16 22 -38 48 -47 60 -31 36 -162 201 -188 235 -14 18 -56 72
-95 120 -38 48 -81 103 -95 121 -14 18 -30 38 -35 44 -6 6 -62 76 -126 156
-152 191 -289 362 -389 485 -45 55 -86 109 -91 120 -5 11 -14 27 -21 37 -10
13 -7 24 15 57 15 23 36 52 46 64 60 71 161 199 246 312 54 72 108 142 119
156 12 14 32 40 46 59 61 81 346 448 369 476 41 49 55 67 81 104 13 19 117
153 230 298 113 145 240 309 283 365 43 56 95 122 117 147 67 78 87 103 150
183 59 73 80 86 80 49z m-4941 -123 c25 -31 55 -69 66 -84 18 -26 119 -157
292 -380 35 -44 81 -105 104 -135 22 -30 79 -104 126 -165 47 -60 113 -147
146 -193 134 -178 176 -234 284 -373 61 -79 119 -152 127 -161 9 -10 16 -21
16 -24 0 -4 24 -35 53 -69 28 -34 61 -75 72 -91 11 -15 29 -39 41 -53 124
-154 276 -370 299 -426 19 -43 19 -45 0 -45 -9 0 -20 12 -26 28 -14 39 -124
192 -275 387 -13 17 -31 39 -39 50 -8 11 -62 81 -121 155 -58 74 -138 178
-177 230 -39 52 -74 97 -77 100 -3 3 -23 30 -45 60 -34 48 -193 256 -228 300
-7 8 -30 40 -52 70 -22 30 -84 111 -138 180 -53 69 -103 133 -110 142 -20 28
-117 153 -229 299 -121 156 -198 265 -198 281 0 15 35 -17 89 -83z m4791 52
c0 -5 -6 -16 -13 -23 -7 -7 -24 -29 -37 -48 -13 -19 -51 -69 -85 -111 -208
-264 -275 -349 -305 -389 -19 -25 -49 -63 -68 -85 -18 -22 -36 -44 -40 -50
-28 -40 -115 -156 -152 -203 -25 -31 -61 -79 -80 -105 -95 -131 -264 -346
-269 -342 -2 3 2 11 8 19 7 8 10 20 6 26 -3 5 -1 10 5 10 10 0 70 56 70 66 0
2 18 29 41 61 l40 58 -28 5 c-15 3 -29 11 -30 18 -4 15 21 16 46 0 15 -9 23
-9 37 3 16 13 14 15 -21 25 -45 12 -62 37 -20 30 15 -3 33 -10 41 -17 11 -9
17 -9 29 1 29 24 24 27 -79 45 -16 2 -33 9 -36 16 -4 6 -10 10 -14 10 -18 -3
-26 0 -26 8 0 13 34 24 38 12 2 -6 11 -11 21 -11 9 0 26 -6 36 -14 11 -8 25
-12 32 -9 7 3 20 0 28 -7 18 -15 45 -6 45 15 0 11 -8 16 -22 15 -39 -3 -48 -1
-48 15 0 9 9 15 25 15 14 0 25 -4 25 -10 0 -16 40 -12 46 5 4 8 13 15 21 15 8
0 13 6 11 13 -3 6 -13 12 -24 12 -10 0 -18 -6 -17 -12 4 -19 -52 -16 -67 2
-10 13 -10 19 4 33 24 28 20 43 -9 36 -15 -4 -25 -2 -25 5 0 6 -13 11 -30 11
-16 0 -30 5 -30 10 0 6 -8 10 -17 10 -10 0 -25 5 -33 10 -13 9 -12 12 4 25 25
19 36 19 36 0 0 -8 8 -15 17 -15 23 0 87 -23 95 -34 8 -12 40 13 32 25 -3 5
-9 7 -14 4 -13 -8 -40 6 -40 20 0 22 22 29 35 11 8 -10 19 -14 29 -10 24 9 14
29 -14 29 -13 0 -26 8 -29 18 -6 17 -8 17 -20 3 -7 -8 -10 -19 -7 -24 8 -13
-20 -35 -33 -28 -6 4 -8 13 -5 20 4 10 -2 12 -22 8 -24 -4 -26 -2 -20 14 19
46 19 54 -3 54 -11 0 -21 6 -21 14 0 8 -7 12 -17 10 -10 -2 -24 0 -32 5 -12 8
-12 12 -2 25 16 20 37 21 44 2 6 -15 67 -30 79 -18 4 4 -4 9 -19 10 -15 1 -29
6 -32 10 -10 12 -61 32 -84 32 -18 0 -19 -2 -7 -10 13 -9 12 -13 -7 -28 -25
-19 -17 -47 9 -37 10 4 22 -2 31 -15 9 -13 17 -17 21 -11 5 7 13 7 26 -1 14
-9 16 -16 8 -25 -12 -15 -58 -18 -58 -4 0 10 -10 14 -62 25 -17 4 -28 13 -28
22 0 13 -3 14 -14 5 -11 -9 -18 -8 -30 4 -9 9 -20 14 -25 10 -5 -3 -12 -1 -16
5 -3 5 -15 10 -27 10 -16 0 -18 -3 -9 -13 6 -8 8 -17 4 -20 -3 -4 -1 -7 5 -7
5 0 12 6 15 13 3 9 8 9 21 -2 15 -12 15 -16 3 -28 -13 -13 -20 -12 -58 8 -24
13 -51 22 -61 20 -9 -1 -19 3 -23 9 -3 5 -20 10 -37 10 -25 0 -28 2 -19 14 8
10 9 16 1 21 -5 3 -10 2 -10 -3 0 -5 -10 -12 -22 -15 -18 -5 -19 -8 -8 -21 11
-15 7 -20 -13 -17 -5 1 -6 -3 -2 -9 11 -17 -17 -11 -31 8 -19 24 -17 32 7 32
16 0 20 5 17 18 -3 12 3 22 18 29 13 6 24 7 26 2 2 -5 13 -10 25 -12 11 -1 27
-8 35 -15 8 -6 24 -9 36 -5 16 4 22 1 22 -11 0 -10 6 -13 15 -10 8 4 15 9 15
13 0 10 -62 34 -82 32 -10 -1 -18 3 -18 8 0 6 -11 11 -24 11 -27 0 -53 24 -36
35 5 3 20 4 33 0 74 -20 104 -28 117 -33 8 -3 20 -4 27 -3 6 1 14 -3 18 -9 3
-5 19 -10 35 -10 23 0 27 -4 23 -19 -4 -15 0 -20 13 -20 11 0 28 -1 38 -3 10
-2 21 3 23 10 3 7 -5 12 -21 12 -18 0 -26 5 -26 17 0 9 -3 13 -6 10 -9 -9 -46
12 -40 22 3 4 -6 6 -19 3 -20 -3 -25 0 -25 16 0 28 13 34 36 17 10 -8 27 -15
36 -15 11 0 15 -5 12 -14 -4 -11 0 -13 17 -9 15 4 26 0 35 -12 13 -18 14 -17
14 8 0 15 7 30 15 33 22 9 19 40 -4 40 -15 0 -17 -3 -9 -13 7 -9 7 -17 -2 -28
-14 -16 -40 -20 -40 -6 0 5 -11 12 -25 15 -14 4 -25 14 -26 24 0 9 -3 12 -5 5
-4 -9 -11 -9 -30 -1 -25 12 -34 9 -38 -14 -3 -24 -17 -38 -37 -38 -10 0 -19 5
-19 11 0 6 -7 8 -16 5 -8 -3 -23 1 -31 10 -10 10 -19 12 -25 6 -7 -7 -17 -3
-29 9 -10 10 -25 16 -34 13 -10 -4 -15 0 -15 15 0 16 6 21 26 21 16 0 23 -4
18 -11 -5 -9 1 -10 20 -5 19 5 26 3 26 -8 0 -9 7 -12 20 -9 11 3 27 0 35 -7 8
-7 23 -9 36 -5 20 7 20 8 6 17 -10 5 -22 6 -28 3 -12 -8 -41 14 -34 25 3 5 -4
6 -15 3 -11 -3 -26 0 -34 6 -7 6 -21 9 -30 5 -11 -4 -16 -1 -16 10 0 9 0 19
-1 23 0 4 5 9 12 12 7 2 9 -1 5 -8 -5 -7 -1 -9 8 -5 10 4 18 -1 23 -12 6 -16
7 -16 13 2 10 26 4 34 -26 34 -23 0 -34 23 -16 34 15 9 52 -6 52 -21 0 -13 3
-13 15 -3 10 9 15 9 15 1 0 -6 11 -11 24 -11 13 0 26 -4 28 -9 2 -4 12 -5 23
0 19 7 19 8 -1 8 -12 1 -24 8 -28 16 -3 8 -17 15 -31 15 -16 0 -25 6 -25 16 0
11 -6 14 -20 9 -14 -4 -22 -1 -26 10 -4 9 -4 18 -2 20 7 7 71 -16 88 -31 12
-12 17 -10 36 13 21 26 22 27 48 10 32 -21 33 -37 4 -62 -22 -19 -22 -20 -3
-23 11 -2 27 -6 35 -9 8 -3 26 -8 40 -10 13 -2 28 -10 32 -16 5 -9 10 -9 20 1
6 6 10 12 8 13 -41 6 -55 11 -61 21 -4 6 -12 7 -18 3 -7 -4 -18 -1 -27 5 -11
10 -12 16 -3 27 13 15 74 9 98 -11 7 -6 19 -11 25 -11 6 -1 20 -5 30 -10 13
-6 22 -3 31 8 7 9 14 14 17 11 3 -2 3 7 1 21 -5 22 -2 25 26 25 17 0 31 -4 31
-10 0 -5 9 -10 20 -10 11 0 20 4 20 9 0 10 -49 21 -96 21 -33 0 -114 22 -146
40 -10 6 -24 10 -32 10 -23 0 -30 20 -13 38 13 13 19 13 32 2 11 -9 19 -10 26
-3 7 7 2 12 -15 17 -14 3 -26 13 -26 21 0 8 -7 15 -16 15 -8 0 -12 -5 -9 -10
3 -6 3 -19 0 -31 -6 -19 -8 -19 -24 -5 -10 9 -27 16 -39 16 -12 0 -22 5 -22
11 0 21 21 49 36 49 12 0 15 -6 9 -27 -5 -23 -4 -25 9 -14 9 7 14 17 11 21 -3
4 2 10 10 14 8 3 17 1 19 -3 3 -5 17 -6 31 -3 15 2 25 0 25 -7 0 -7 6 -11 13
-10 27 3 37 -2 37 -19 0 -15 6 -18 30 -14 18 3 30 0 30 -7 0 -6 11 -11 25 -11
16 0 25 -6 25 -15 0 -8 5 -15 10 -15 6 0 10 9 10 20 0 15 -7 20 -25 20 -18 0
-25 5 -25 20 0 14 7 20 23 20 22 1 22 1 2 16 -15 11 -21 12 -24 2 -10 -34 -22
-37 -62 -16 -21 11 -39 24 -39 28 0 22 14 40 32 40 16 0 19 -5 16 -25 -6 -27
-1 -30 22 -15 13 9 13 11 0 20 -12 8 -12 10 5 10 11 0 29 14 40 30 22 33 40
38 53 14 8 -14 12 -12 30 11 12 15 22 32 22 36 0 5 5 9 10 9 6 0 10 -8 10 -19
0 -14 6 -17 25 -13 20 3 25 0 25 -17 0 -23 -20 -27 -50 -11 -16 8 -19 7 -17
-10 1 -14 7 -19 23 -16 29 6 36 -2 23 -25 -10 -19 -49 -27 -49 -10 0 5 -14 11
-31 15 -17 3 -28 10 -25 14 3 5 -9 6 -26 4 -21 -3 -26 -7 -17 -13 8 -5 21 -9
29 -9 8 0 38 -11 65 -25 55 -27 70 -30 60 -15 -9 15 4 50 19 50 9 0 12 9 8 25
-3 20 0 25 16 25 12 0 25 -8 31 -17 11 -20 20 -15 26 16 9 47 45 60 45 15 0
-21 4 -24 20 -19 13 4 22 1 26 -8 3 -9 13 -13 24 -10 11 3 27 -2 35 -11 9 -9
23 -16 31 -16 11 0 12 4 2 19 -6 10 -16 17 -22 15 -6 -2 -17 0 -25 5 -17 11
-6 45 12 37 6 -2 31 -10 55 -17 23 -6 42 -17 42 -24 0 -8 8 -11 20 -8 11 3 18
9 15 13 -3 5 -2 15 1 24 8 20 50 21 58 1 3 -8 12 -12 20 -9 8 3 22 1 32 -4 15
-9 15 -11 -4 -30 -12 -12 -17 -24 -12 -27 14 -8 30 3 30 21 0 8 5 14 10 14 6
0 15 11 20 25 9 23 13 25 50 19 25 -4 40 -3 40 4 0 15 29 42 46 42 22 0 17
-28 -7 -35 -20 -7 -20 -8 -5 -23 15 -15 19 -12 58 31 47 50 48 51 48 38z
m-1640 -2233 c0 -6 24 -41 53 -77 29 -36 64 -82 78 -101 15 -19 37 -47 50 -61
13 -14 41 -47 61 -75 21 -27 46 -58 56 -69 11 -11 72 -87 136 -170 119 -152
390 -496 571 -724 55 -70 138 -176 185 -236 47 -60 119 -152 160 -204 42 -53
113 -143 158 -201 46 -58 89 -113 97 -122 7 -9 22 -29 32 -45 9 -15 23 -31 29
-35 12 -8 57 -78 50 -78 -2 0 -39 43 -82 96 -44 53 -98 119 -122 148 -24 28
-61 74 -82 101 -20 28 -46 60 -56 72 -11 12 -41 52 -69 88 -62 83 -216 277
-294 370 -9 11 -54 70 -101 130 -46 61 -114 147 -150 191 -36 45 -110 139
-165 209 -55 70 -149 189 -210 265 -60 76 -139 176 -175 222 -36 46 -70 90
-77 98 -114 142 -153 196 -153 212 0 10 5 16 10 13 6 -3 10 -11 10 -17z
m-2600 -348 c0 -5 23 -10 51 -10 l52 0 -6 -37 c-4 -21 -11 -39 -17 -41 -5 -2
-12 -26 -16 -53 -5 -39 -10 -49 -26 -49 -10 0 -21 -7 -24 -15 -4 -8 -12 -15
-19 -15 -7 0 -18 -7 -25 -15 -10 -12 -10 -15 1 -16 8 0 4 -5 -9 -11 -13 -6
-21 -17 -18 -24 6 -16 -26 -44 -51 -44 -15 0 -25 -11 -37 -40 -9 -22 -22 -40
-29 -40 -8 0 -19 -11 -25 -25 -6 -14 -18 -25 -27 -25 -8 0 -15 -9 -15 -21 0
-11 -13 -32 -30 -46 -16 -13 -30 -33 -30 -44 0 -10 -13 -25 -30 -34 -16 -9
-30 -20 -30 -25 0 -5 -11 -21 -25 -36 -14 -15 -36 -41 -48 -57 -12 -16 -27
-34 -33 -40 -5 -7 -27 -38 -47 -69 -20 -31 -50 -70 -67 -85 -28 -24 -70 -97
-70 -120 0 -4 -14 -35 -31 -67 -25 -47 -32 -73 -33 -123 0 -34 -5 -63 -9 -63
-4 0 -5 -16 -1 -36 4 -20 2 -39 -3 -43 -5 -3 -7 -28 -5 -55 3 -35 7 -45 14
-35 8 11 8 10 4 -4 -8 -26 23 -119 46 -138 18 -14 19 -23 12 -75 -4 -32 -7
-68 -5 -79 1 -12 -5 -34 -13 -50 -13 -24 -16 -26 -22 -12 -3 10 -2 36 4 58 10
39 9 42 -57 142 -37 56 -94 138 -126 182 -31 44 -60 87 -63 95 -3 8 -18 31
-33 50 -81 104 -269 486 -293 595 -4 17 -15 53 -26 80 -62 169 -122 450 -90
430 9 -5 11 -1 6 16 -3 13 -3 18 0 12 6 -15 94 -18 94 -4 0 5 68 9 152 10 92
1 156 5 164 12 7 6 33 10 56 8 25 -2 60 4 83 14 25 11 79 20 150 24 76 4 113
11 120 20 6 8 44 18 90 23 138 17 187 26 194 38 4 7 45 13 101 15 52 1 112 4
133 5 20 1 37 -2 37 -8z m1977 -817 c19 -9 39 -26 43 -39 5 -13 17 -32 27 -43
10 -10 41 -51 68 -90 28 -39 108 -146 178 -239 71 -92 138 -182 149 -199 11
-18 24 -33 29 -33 5 0 9 -5 9 -11 0 -10 55 -91 88 -129 7 -8 36 -44 63 -80 27
-36 57 -74 67 -85 10 -11 26 -33 36 -50 10 -16 30 -42 44 -57 l26 -28 743 0
c638 0 749 2 780 15 44 19 43 19 43 -3 0 -25 -23 -44 -92 -75 -37 -16 -86 -53
-140 -104 -158 -151 -173 -164 -267 -235 -353 -266 -873 -489 -1333 -573 -166
-31 -196 -35 -368 -50 -218 -19 -327 -19 -544 0 -276 24 -538 75 -761 150
-408 135 -795 337 -1109 579 -44 33 -87 68 -96 76 -9 8 -53 46 -98 84 -45 38
-82 70 -82 72 0 14 70 -28 125 -74 37 -31 102 -82 144 -114 42 -31 87 -65 101
-75 48 -37 175 -111 212 -124 30 -10 41 -10 50 -1 9 9 9 12 -1 12 -8 0 14 27
48 60 33 33 61 64 61 69 0 5 14 22 30 38 17 15 30 34 30 40 0 7 9 18 20 25 11
7 20 18 20 24 0 7 13 26 29 43 17 18 24 32 17 35 -6 2 -2 5 9 5 17 1 17 3 5
11 -13 8 -12 10 5 11 11 1 0 5 -25 9 -53 10 -894 15 -909 6 -10 -6 -88 61 -80
69 3 2 36 -1 74 -7 49 -7 279 -9 759 -5 615 6 690 8 706 22 10 9 58 69 106
133 49 64 91 119 94 122 3 3 25 32 50 65 43 57 55 73 90 115 8 10 40 51 70 90
267 350 388 499 433 535 28 22 42 25 110 25 53 0 91 -5 114 -17z"/>
<path d="M6660 6257 c-52 -67 -142 -185 -200 -262 -58 -77 -127 -167 -152
-200 -26 -32 -45 -61 -42 -64 5 -5 23 11 90 79 18 19 34 31 34 26 0 -6 6 -3
13 6 6 8 26 24 44 34 26 15 36 16 58 6 14 -6 30 -23 35 -37 11 -29 12 -29 79
-14 34 7 61 21 85 45 37 36 76 102 76 129 0 8 4 23 9 33 5 9 17 51 26 92 10
41 22 80 27 87 6 7 8 18 5 25 -4 8 -8 4 -13 -10 -5 -17 -12 -22 -26 -19 -22 6
-87 -32 -88 -50 0 -15 -20 -18 -20 -4 0 6 5 13 10 16 6 3 10 13 10 22 0 13 -5
12 -27 -8 -21 -19 -25 -21 -20 -6 4 11 10 30 13 44 4 13 12 22 19 20 8 -4 10
3 8 18 -3 14 6 39 23 64 54 82 17 47 -76 -72z"/>
<path d="M5295 4371 c-17 -8 -16 -10 12 -10 39 -1 63 -24 63 -59 0 -15 7 -49
16 -77 11 -38 13 -69 8 -130 -4 -44 -9 -98 -10 -120 -2 -22 -7 -85 -12 -140
-5 -56 -5 -107 -1 -117 5 -9 9 -26 9 -38 0 -13 13 -28 35 -41 19 -12 35 -27
35 -34 0 -8 7 -20 15 -29 13 -12 21 -13 40 -4 29 13 55 -3 55 -33 0 -12 7 -19
20 -19 11 0 20 -7 20 -15 0 -8 9 -15 19 -15 11 0 28 -11 39 -25 14 -17 22 -21
25 -13 4 9 12 6 25 -9 11 -13 27 -23 36 -23 9 0 16 -4 16 -10 0 -5 7 -10 15
-10 9 0 20 -10 26 -22 15 -33 78 -78 107 -78 14 0 33 -6 41 -13 40 -34 115
-41 226 -22 32 6 54 20 65 41 14 26 23 12 -160 253 -41 55 -83 110 -92 123 -9
13 -43 59 -75 103 -32 45 -84 114 -116 155 -101 131 -192 253 -251 337 -32 46
-61 85 -64 87 -16 10 -169 15 -187 7z"/>
<path d="M585 5695 c-22 -8 -41 -15 -41 -15 -1 0 -4 -9 -7 -21 -3 -12 -10 -18
-16 -14 -8 4 -11 -31 -11 -114 0 -313 60 -727 163 -1121 48 -183 148 -488 190
-580 9 -19 28 -64 43 -100 29 -71 146 -309 214 -435 43 -81 55 -100 171 -280
67 -105 238 -335 349 -470 166 -203 426 -457 645 -629 61 -48 117 -92 125 -99
21 -17 150 -110 171 -122 9 -5 27 -16 39 -23 12 -8 19 -9 16 -3 -11 17 -1 13
28 -13 30 -25 36 -25 156 9 30 9 72 21 94 27 22 6 41 7 45 2 11 -16 29 -14 27
4 0 9 8 18 19 20 11 2 27 11 37 19 14 13 18 12 37 -8 18 -19 21 -20 27 -6 3 9
3 21 -1 27 -3 5 1 10 9 10 18 0 32 -20 14 -20 -8 -1 -6 -6 6 -15 27 -20 45
-19 20 1 -19 15 -18 15 4 11 31 -7 28 0 -10 19 -34 17 -229 143 -238 153 -3 4
-32 24 -65 46 -33 22 -118 85 -190 140 -382 293 -752 688 -1022 1090 -72 107
-102 156 -176 285 -87 154 -223 452 -281 620 -138 397 -175 537 -226 850 -26
156 -37 255 -46 385 -4 61 -8 117 -9 125 -1 8 -2 59 -3 113 -1 63 -6 96 -12
92 -6 -3 -13 1 -16 10 -6 14 -8 14 -24 0 -15 -14 -18 -14 -30 0 -9 11 -32 15
-88 15 -53 0 -78 4 -86 14 -10 13 -16 13 -51 1z"/>
<path d="M487 5065 c3 -49 6 -97 8 -105 1 -8 8 -49 14 -90 57 -356 174 -795
272 -1017 11 -23 19 -45 19 -48 0 -12 101 -238 153 -340 157 -312 396 -684
591 -920 37 -44 83 -100 104 -125 140 -170 702 -691 702 -651 0 6 -6 14 -14
18 -90 51 -555 504 -716 698 -323 389 -543 747 -755 1230 -87 198 -171 448
-246 735 -33 125 -98 455 -130 655 -5 35 -6 22 -2 -40z"/>
<path d="M3816 962 c17 -16 158 -62 239 -78 44 -9 85 -20 90 -25 36 -29 460
-132 645 -156 186 -25 898 -24 1160 1 96 9 182 18 190 21 8 2 76 14 150 25
132 20 340 83 340 103 0 5 -13 6 -29 2 -16 -3 -45 -7 -63 -7 -18 0 -39 -6 -47
-12 -12 -9 -13 -8 -9 5 6 15 -2 15 -80 -2 -48 -10 -157 -28 -242 -39 -85 -12
-189 -26 -230 -33 -102 -16 -918 -16 -1020 0 -41 6 -145 21 -230 32 -85 12
-168 25 -185 31 -16 5 -72 16 -124 25 -52 9 -103 21 -113 26 -13 7 -18 6 -18
-3 0 -8 -3 -9 -11 -1 -6 6 -30 8 -55 5 -46 -5 -78 3 -259 60 -94 29 -116 34
-99 20z"/>
</g>
</svg>
