<?xml version="1.0" standalone="no"?>
<!DOCTYPE svg PUBLIC "-//W3C//DTD SVG 20010904//EN"
 "http://www.w3.org/TR/2001/REC-SVG-20010904/DTD/svg10.dtd">
<svg version="1.0" xmlns="http://www.w3.org/2000/svg"
 width="400.000000pt" height="400.000000pt" viewBox="0 0 400.000000 400.000000"
 preserveAspectRatio="xMidYMid meet">

<g transform="translate(0.000000,400.000000) scale(0.100000,-0.100000)"
fill="#000000" stroke="none">
<path d="M1 3173 c1 -456 3 -819 6 -808 29 136 102 352 113 335 3 -5 17 16 30
47 55 137 109 227 126 210 3 -3 -4 -23 -16 -46 -11 -23 -18 -41 -16 -41 2 0
34 38 71 85 36 47 68 85 71 85 3 0 -8 -24 -26 -52 -46 -77 -107 -210 -145
-313 -47 -130 -53 -178 -7 -60 21 55 60 142 86 194 46 91 171 291 183 291 3 0
-3 -12 -13 -27 -189 -287 -278 -521 -329 -855 -30 -198 -16 -507 31 -691 12
-45 12 -62 3 -80 -7 -12 -16 -38 -19 -59 -5 -28 -4 -35 7 -31 7 3 14 15 14 27
1 11 2 28 3 38 1 9 4 19 7 23 10 9 21 -44 13 -58 -4 -7 -3 -8 2 -4 11 10 45
-88 38 -111 -5 -15 -4 -15 6 -2 9 12 11 10 7 -12 -2 -15 -1 -25 3 -23 8 5 53
-81 53 -102 0 -7 3 -13 6 -13 4 0 12 -9 19 -20 11 -18 10 -25 -8 -49 -11 -16
-20 -34 -20 -40 0 -6 -4 -11 -10 -11 -5 0 -10 -4 -10 -10 0 -20 19 -9 29 18
l11 27 -5 -28 c-4 -21 -2 -27 6 -21 9 5 10 2 6 -10 -4 -10 -7 -21 -7 -24 0 -4
-5 0 -10 8 -8 13 -10 12 -10 -2 0 -23 27 -23 32 -1 2 14 6 12 20 -10 13 -19
15 -32 9 -50 -12 -30 15 -79 30 -56 12 19 11 39 -1 39 -5 0 -7 -7 -4 -15 4 -8
2 -15 -4 -15 -20 0 -18 24 4 66 12 23 19 46 16 50 -4 4 -1 4 6 0 20 -12 14 4
-29 77 -22 38 -39 70 -37 73 2 2 21 -25 41 -59 259 -443 672 -756 1157 -878
263 -66 566 -72 818 -17 53 11 53 12 25 23 l-28 12 40 11 c22 7 43 12 47 12 4
0 19 12 34 27 23 23 26 32 20 72 l-6 46 20 -25 c18 -23 20 -23 20 -5 0 18 3
17 17 -6 13 -22 26 -28 67 -32 35 -4 58 -1 74 9 22 14 22 14 16 -12 -6 -24 -5
-26 17 -19 40 12 160 71 234 116 118 71 214 148 343 273 132 130 167 148 50
26 -40 -41 -60 -63 -44 -50 70 60 202 215 240 282 25 44 11 28 -58 -65 -32
-43 -60 -76 -63 -73 -3 3 10 24 29 48 124 154 254 406 318 616 12 40 24 71 26
69 2 -2 -1 -19 -6 -38 -11 -37 -13 -55 -5 -47 7 7 44 160 62 253 21 115 28
372 14 491 -58 468 -241 841 -566 1154 -143 138 -285 237 -475 333 -63 32
-104 55 -90 52 14 -4 72 -32 130 -62 306 -160 543 -373 737 -663 99 -149 193
-373 237 -571 39 -177 75 -428 77 -539 1 -48 3 -58 9 -40 4 14 9 43 9 65 2 36
3 38 15 22 30 -39 30 179 1 438 -2 22 2 11 10 -25 28 -131 40 -345 27 -511
-32 -415 -165 -749 -424 -1060 -104 -126 -220 -238 -338 -325 -47 -35 -89 -67
-95 -72 -5 -4 -53 -34 -105 -66 -52 -33 -99 -62 -103 -66 -12 -10 3 -40 21
-40 34 0 -1 -14 -38 -15 -27 -1 -55 -12 -97 -41 -33 -23 -70 -44 -84 -47 -34
-9 -68 -37 -51 -43 19 -8 14 -27 -5 -20 -9 4 -20 2 -23 -5 -5 -8 -15 -6 -34 6
-17 11 -30 14 -39 8 -19 -15 -201 -17 -191 -2 5 8 0 10 -17 6 -13 -3 -99 -11
-192 -18 -199 -14 -394 -2 -577 36 -146 31 -160 35 -160 47 0 6 -12 7 -27 4
-22 -5 -25 -4 -13 5 12 9 11 10 -8 6 -12 -3 -19 -1 -16 4 3 6 -6 7 -23 4 -21
-5 -24 -4 -13 4 12 9 9 11 -16 11 -17 0 -46 5 -64 12 -31 10 -32 12 -15 25 11
7 28 13 39 13 12 0 -8 13 -44 29 -36 15 -69 25 -75 21 -5 -3 -19 -7 -30 -7
-11 -1 -27 -3 -35 -5 -8 -2 -14 2 -13 9 2 7 -3 10 -11 7 -8 -3 -31 5 -53 19
-21 13 -48 27 -61 31 -29 10 -28 20 3 34 35 16 44 14 21 -3 -11 -8 -18 -16
-15 -18 40 -29 64 -38 92 -32 24 5 28 4 17 -4 -12 -8 -7 -11 20 -11 23 0 31
-3 21 -9 -9 -6 -5 -8 13 -8 38 0 32 9 -20 32 -25 11 -50 26 -56 32 -6 7 -15
10 -20 7 -5 -3 -1 -13 9 -21 12 -9 13 -12 3 -9 -8 3 -23 9 -32 12 -10 4 -18
11 -18 16 0 5 4 7 9 3 5 -3 13 0 17 7 4 7 4 10 0 7 -4 -4 -18 3 -32 16 -24 22
-26 22 -64 8 -36 -15 -40 -14 -69 6 -17 13 -31 29 -31 36 0 8 -10 23 -22 35
-21 19 -20 22 11 24 8 1 16 6 18 13 3 7 -5 10 -21 9 -14 -2 -23 1 -20 5 7 12
56 3 65 -13 4 -7 10 -10 14 -7 3 3 -30 35 -72 72 -43 36 -93 81 -112 101 -28
29 -37 33 -53 25 -20 -11 -48 3 -48 24 0 5 8 3 18 -6 12 -11 22 -13 32 -6 10
6 11 12 5 17 -20 14 -130 147 -169 205 -28 40 -42 54 -48 45 -12 -20 -10 -25
13 -31 12 -3 18 -10 14 -16 -3 -6 -10 -9 -15 -6 -5 3 1 -13 13 -35 12 -22 28
-42 35 -45 7 -2 10 -1 7 4 -3 5 -1 12 5 16 5 3 10 1 10 -6 0 -6 8 -18 17 -25
15 -11 15 -15 4 -23 -9 -6 -10 -11 -2 -15 6 -4 11 -2 11 5 0 7 8 5 20 -6 26
-24 25 -33 -4 -41 -16 -4 -23 -11 -19 -20 3 -8 0 -14 -7 -14 -8 0 -7 -8 5 -26
9 -14 15 -27 13 -29 -4 -5 -138 151 -138 162 0 4 -8 13 -18 19 -10 6 -26 30
-37 53 -11 22 -24 41 -28 41 -5 0 -5 5 -2 10 3 6 2 10 -4 10 -13 0 -71 103
-71 127 0 10 -5 24 -11 30 -13 13 -3 36 12 28 18 -12 50 6 47 26 -3 22 -20 27
-27 8 -2 -7 1 -9 8 -5 6 4 11 3 11 -3 0 -5 -5 -13 -10 -16 -6 -3 -10 0 -10 7
0 10 -3 9 -11 -2 -9 -12 -10 -12 -5 3 3 11 3 24 -1 30 -5 7 -10 0 -13 -17 -3
-16 -10 -31 -17 -33 -7 -3 -9 3 -6 16 7 29 -15 78 -38 84 -14 4 -17 10 -12 24
3 10 2 15 -2 10 -5 -4 -22 30 -37 75 -44 130 -58 179 -48 173 14 -9 12 2 -5
29 -9 13 -17 46 -18 74 -1 27 -5 48 -8 46 -4 -2 -12 42 -19 99 -6 56 -13 109
-15 117 -1 8 -3 -407 -4 -923 l-1 -937 1874 0 c1478 0 1875 3 1879 13 4 9 6 9
6 0 1 -10 32 -13 121 -13 l120 0 0 824 c-1 639 -3 826 -13 829 -9 4 -9 6 1 6
10 1 12 240 12 1171 l0 1170 -998 -1 c-554 -1 -947 -5 -885 -9 290 -20 569
-98 813 -229 36 -19 79 -42 97 -51 29 -16 232 -157 243 -169 3 -3 39 -35 80
-71 41 -36 92 -84 113 -106 91 -99 214 -267 272 -369 42 -74 17 -44 -58 70
-69 106 -200 268 -261 323 -53 48 -44 28 17 -34 148 -152 316 -399 360 -528
21 -60 16 -70 -8 -20 -22 47 -102 171 -115 179 -16 10 -12 -13 7 -43 l17 -27
-22 19 c-12 11 -22 23 -22 27 0 8 -118 190 -129 199 -3 3 -24 27 -45 54 -188
233 -473 441 -761 554 -213 83 -400 121 -640 129 -180 6 -354 -10 -445 -41
l-45 -15 65 4 c207 16 479 17 588 1 117 -16 296 -55 289 -62 -2 -2 -43 5 -92
16 -321 77 -730 61 -941 -37 -28 -13 -78 -28 -110 -34 -33 -6 -81 -21 -109
-33 -27 -13 -67 -29 -87 -37 -34 -12 -44 -25 -39 -53 1 -5 -5 -6 -14 -3 -10 4
-15 1 -15 -10 0 -14 -2 -14 -20 2 -18 17 -21 16 -77 -15 -56 -32 -130 -82
-203 -136 -19 -15 -13 -7 13 16 26 24 84 68 129 99 45 31 83 61 85 66 4 12
-57 13 -76 1 -8 -5 -16 -4 -20 2 -4 7 -30 -4 -71 -29 l-65 -40 45 40 c25 23
48 41 53 41 4 0 7 5 7 10 0 28 -227 -147 -356 -275 -150 -150 -262 -301 -366
-500 -68 -130 -78 -134 -13 -5 160 319 365 552 693 789 45 32 79 61 75 64 -4
3 -27 8 -50 12 -24 4 -43 10 -43 15 0 8 67 25 87 21 7 -1 15 10 19 24 3 14 10
25 15 25 6 0 7 23 4 53 -6 49 -5 50 8 28 14 -23 15 -23 19 -5 3 16 6 14 23
-13 16 -28 24 -32 57 -30 21 1 38 7 38 12 0 6 7 2 14 -8 13 -17 15 -17 29 3
l15 22 12 -23 c12 -21 14 -21 25 -6 6 9 15 14 18 11 8 -8 177 47 177 58 0 5 5
6 10 3 6 -4 52 3 103 15 129 31 194 40 337 47 69 3 127 7 129 9 2 2 -446 4
-997 4 l-1002 0 1 -827z m3389 787 c0 -5 -5 -10 -11 -10 -5 0 -7 5 -4 10 3 6
8 10 11 10 2 0 4 -4 4 -10z m-2470 -166 c0 -8 -5 -12 -10 -9 -6 4 -8 11 -5 16
9 14 15 11 15 -7z m-160 -4 c0 -5 -4 -10 -10 -10 -5 0 -10 5 -10 10 0 6 5 10
10 10 6 0 10 -4 10 -10z m1835 -25 c39 -17 21 -18 -25 0 -19 7 -28 14 -20 14
8 0 29 -6 45 -14z m95 -35 c8 -5 11 -10 5 -10 -5 0 -17 5 -25 10 -8 5 -10 10
-5 10 6 0 17 -5 25 -10z m-1760 -14 c0 -3 -4 -8 -10 -11 -5 -3 -10 -1 -10 4 0
6 5 11 10 11 6 0 10 -2 10 -4z m2660 -176 c0 -5 -4 -10 -10 -10 -5 0 -10 5
-10 10 0 6 5 10 10 10 6 0 10 -4 10 -10z m-3243 -96 c-3 -3 -12 -4 -19 -1 -8
3 -5 6 6 6 11 1 17 -2 13 -5z m413 -49 c-13 -14 -28 -25 -34 -25 -6 0 3 11 19
25 39 31 45 32 15 0z m1303 -20 c42 -25 77 -49 77 -53 -1 -9 -252 -154 -288
-166 -15 -5 -34 -15 -43 -22 -8 -8 -19 -14 -23 -14 -4 0 -44 -27 -88 -60 -45
-33 -85 -60 -90 -60 -4 0 -8 -7 -8 -15 0 -8 -13 -24 -30 -37 -16 -12 -30 -25
-30 -29 0 -10 -91 -99 -102 -99 -5 0 -7 -4 -4 -9 3 -5 -1 -11 -9 -15 -8 -3
-15 -12 -15 -20 0 -9 -6 -13 -14 -10 -16 6 -40 -31 -33 -50 4 -9 -3 -12 -21
-10 -15 2 -19 1 -9 -2 25 -8 11 -23 -16 -17 -16 3 -18 2 -8 -5 10 -7 -11 -25
-90 -71 -56 -34 -106 -61 -111 -61 -4 0 -9 -118 -10 -261 l-3 -262 -71 -46
c-39 -25 -107 -70 -150 -98 -44 -29 -82 -53 -86 -53 -5 0 -8 200 -8 445 l0
444 56 36 c30 20 76 46 102 59 26 12 117 64 202 116 157 94 480 278 558 318
24 12 48 19 54 16 6 -4 8 -3 5 3 -4 5 6 16 21 24 15 8 65 40 112 71 47 32 87
57 90 58 3 0 40 -20 83 -45z m1867 5 c0 -5 -5 -10 -11 -10 -5 0 -7 5 -4 10 3
6 8 10 11 10 2 0 4 -4 4 -10z m-3211 -22 c-2 -2 -24 -21 -49 -43 l-45 -40 40
43 c21 23 43 42 49 42 5 0 7 -1 5 -2z m3071 -18 c-8 -5 -17 -7 -19 -4 -3 3 1
9 9 14 8 5 17 7 19 4 3 -3 -1 -9 -9 -14z m-80 6 c0 -3 -4 -8 -10 -11 -5 -3
-10 -1 -10 4 0 6 5 11 10 11 6 0 10 -2 10 -4z m215 -66 c3 -5 1 -10 -4 -10 -6
0 -11 5 -11 10 0 6 2 10 4 10 3 0 8 -4 11 -10z m-3325 -43 c0 -2 -15 -16 -32
-33 l-33 -29 29 33 c28 30 36 37 36 29z m1381 -329 c1 -118 13 -297 17 -258 2
19 131 154 139 146 10 -10 16 -472 8 -578 l-7 -95 -36 -13 c-20 -7 -165 -63
-322 -124 -337 -133 -407 -160 -563 -217 l-117 -44 2 -105 3 -105 192 -115
193 -115 0 -89 c0 -84 -1 -88 -17 -74 -10 8 -74 43 -143 78 -69 34 -138 70
-155 80 -16 10 -41 20 -55 24 -14 3 -20 3 -14 1 6 -3 8 -19 6 -35 -2 -17 0
-30 6 -30 17 0 8 -34 -13 -47 -11 -7 -14 -12 -7 -13 7 0 10 -4 7 -10 -3 -5 0
-7 8 -4 8 3 14 -2 14 -11 0 -8 -3 -15 -6 -15 -6 0 -88 45 -269 145 l-72 40 0
133 c0 73 -4 132 -9 132 -5 0 -60 -21 -123 -46 -136 -54 -316 -117 -302 -105
5 4 77 52 159 106 83 54 249 164 370 243 658 433 868 571 913 597 l32 19 0
277 0 277 28 11 c15 6 48 25 72 41 25 17 48 30 53 30 4 0 8 -60 8 -132z m619
-38 c47 -23 117 -59 155 -80 39 -20 81 -41 95 -45 24 -7 24 -7 7 12 -9 11 -14
23 -10 27 4 4 8 29 8 57 0 36 -4 49 -15 49 -10 0 -11 3 -3 11 11 11 65 -16
310 -152 l43 -24 0 -126 c0 -69 2 -128 5 -131 3 -3 47 10 98 29 173 65 331
122 334 120 1 -1 -13 -12 -30 -24 -41 -27 -536 -352 -647 -425 -47 -30 -200
-131 -340 -223 -201 -132 -434 -285 -458 -301 -2 -1 -3 -124 -3 -273 l0 -271
-69 -40 c-38 -22 -76 -43 -84 -46 -14 -5 -16 16 -16 192 0 193 -1 198 -18 173
-9 -15 -42 -53 -73 -84 l-57 -59 -7 85 c-3 46 -5 200 -3 343 l3 259 220 87
c420 166 630 248 727 281 l98 34 0 103 0 102 -59 38 c-32 20 -119 73 -194 117
l-137 80 0 89 c0 84 1 88 18 74 9 -9 55 -34 102 -58z m1220 -36 c28 -58 50
-111 50 -118 0 -6 -9 7 -19 29 -10 22 -33 72 -52 110 -19 39 -35 73 -37 78 -2
4 -1 7 3 7 3 0 28 -48 55 -106z m-3689 -101 c-12 -20 -14 -14 -5 12 4 9 9 14
11 11 3 -2 0 -13 -6 -23z m3686 5 c-3 -8 -6 -5 -6 6 -1 11 2 17 5 13 3 -3 4
-12 1 -19z m73 -73 c0 -5 -5 -3 -10 5 -5 8 -10 20 -10 25 0 6 5 3 10 -5 5 -8
10 -19 10 -25z m24 -65 c5 -17 4 -20 -2 -10 -5 8 -13 26 -16 40 -5 17 -4 20 2
10 5 -8 13 -26 16 -40z m-728 -1267 c-4 -9 -186 -117 -283 -167 -28 -14 -32
-14 -27 -1 4 8 10 15 14 15 8 0 3 778 -5 827 -3 17 0 20 13 16 9 -3 14 -3 10
2 -9 10 15 29 161 128 l116 78 3 -443 c1 -244 0 -448 -2 -455z m-311 85 l6
-87 -38 -24 c-21 -13 -71 -41 -111 -63 -57 -30 -77 -47 -88 -73 -8 -19 -11
-39 -6 -45 5 -6 8 -30 7 -52 -1 -34 2 -41 15 -37 9 4 7 0 -5 -10 -11 -8 -23
-13 -27 -11 -5 3 -8 1 -8 -4 0 -6 -17 -20 -37 -32 -331 -196 -583 -340 -596
-340 -5 0 -44 19 -85 42 -70 39 -74 42 -56 55 10 8 112 69 227 137 114 67 204
126 200 130 -4 4 1 4 11 0 14 -5 17 -4 12 4 -4 8 0 12 12 12 21 0 66 43 55 53
-3 4 4 7 16 7 18 0 22 4 17 17 -4 10 -4 15 -1 11 9 -9 186 172 179 184 -4 7 2
8 17 3 22 -7 23 -7 9 10 -14 16 -13 17 6 11 15 -4 23 -2 27 8 4 11 1 13 -11
10 -12 -4 -11 -2 3 7 31 20 45 36 37 44 -4 4 3 4 15 1 18 -6 22 -4 17 7 -3 8
2 17 13 21 10 3 49 26 88 50 38 25 71 44 72 43 1 -1 4 -41 8 -89z m-2597 -153
c-3 -3 -9 2 -12 12 -6 14 -5 15 5 6 7 -7 10 -15 7 -18z m-78 -119 c-1 -17 -2
-18 -9 -6 -5 8 -12 26 -15 40 -7 24 -6 24 8 6 9 -11 16 -29 16 -40z m140 -7
c0 -6 -4 -7 -10 -4 -5 3 -10 11 -10 16 0 6 5 7 10 4 6 -3 10 -11 10 -16z m40
-135 c0 -3 -4 -2 -10 1 -5 3 -10 1 -10 -5 0 -6 -5 -8 -12 -4 -6 4 -8 3 -4 -4
3 -6 17 -9 30 -6 20 3 23 1 18 -21 -2 -14 -9 -25 -14 -25 -6 0 -8 7 -5 14 4
10 1 13 -7 10 -15 -6 -25 5 -31 33 -2 10 -4 23 -6 28 -1 6 1 18 6 28 7 16 10
14 26 -13 11 -17 19 -33 19 -36z m3580 36 c0 -5 -7 -10 -16 -10 -8 0 -12 5 -9
10 3 6 10 10 16 10 5 0 9 -4 9 -10z m-3482 -180 c6 -10 8 -21 4 -24 -5 -3 -16
8 -26 24 -19 34 1 34 22 0z m142 -174 c-1 -6 -8 -2 -18 10 -16 19 -18 19 -35
4 -19 -19 -22 -30 -6 -30 5 0 7 6 3 13 -5 9 -4 9 6 0 11 -10 11 -15 0 -30 -12
-15 -12 -16 0 -5 16 14 34 16 26 3 -4 -5 3 -7 14 -4 24 6 26 -3 4 -24 -13 -14
-17 -14 -24 -2 -5 7 -13 10 -17 5 -4 -4 0 -13 10 -20 25 -19 21 -30 -5 -12
-12 9 -23 25 -25 37 -2 13 -9 29 -15 37 -10 12 -7 19 17 38 27 21 31 22 47 7
10 -9 18 -21 18 -27z m30 -50 c-12 -12 -1 -38 13 -29 7 4 8 0 4 -11 -5 -11 -3
-16 5 -14 22 8 20 28 -3 36 -14 5 -18 11 -11 16 14 8 64 -42 56 -56 -4 -7 -2
-8 4 -4 12 7 13 6 17 -30 1 -12 5 -28 9 -35 4 -8 0 -5 -8 6 -9 11 -14 25 -11
33 2 7 0 10 -5 7 -6 -4 -9 -14 -8 -22 5 -26 -42 -23 -73 4 -27 24 -41 85 -14
63 10 -8 12 -3 11 22 -3 40 3 55 15 37 4 -8 4 -18 -1 -23z m3120 -70 c0 -3 -4
-8 -10 -11 -5 -3 -10 -1 -10 4 0 6 5 11 10 11 6 0 10 -2 10 -4z m-2997 -42
c-7 -18 -19 -18 -27 1 -3 8 -1 15 5 15 6 0 7 6 3 13 -6 9 -3 8 8 -1 9 -8 14
-20 11 -28z m20 -20 c-27 -20 -39 -17 -18 6 10 11 22 17 27 14 5 -3 1 -12 -9
-20z m-63 -4 c0 -4 11 -11 25 -14 14 -4 25 -11 25 -17 0 -6 -9 -7 -22 -3 -13
4 -29 7 -35 7 -7 0 -20 8 -28 17 -15 16 -14 18 10 18 14 0 25 -4 25 -8z m2850
-5 c-7 -8 -17 -12 -22 -9 -6 4 -5 10 3 15 22 14 33 10 19 -6z m-2773 -85 c1
-7 0 -7 -4 0 -2 5 -10 10 -17 10 -7 0 -21 10 -32 22 l-19 22 35 -22 c19 -11
36 -26 37 -32z m159 -52 c4 -6 3 -8 -3 -5 -6 4 -16 0 -23 -8 -13 -16 -40 -20
-40 -7 0 5 12 13 28 19 15 6 28 11 29 12 1 1 5 -4 9 -11z m2834 -48 c0 -5 -2
-10 -4 -10 -3 0 -8 5 -11 10 -3 6 -1 10 4 10 6 0 11 -4 11 -10z m-2630 -82
c-13 -5 -31 -7 -39 -5 -10 3 -7 5 7 6 12 0 22 5 22 11 0 5 7 7 17 3 13 -5 12
-8 -7 -15z m1832 -10 c-7 -7 -12 -8 -12 -2 0 14 12 26 19 19 2 -3 -1 -11 -7
-17z m-1796 -7 c-4 -6 -13 -8 -21 -4 -8 3 -15 3 -15 0 0 -14 31 -14 45 -1 8 8
20 12 26 8 8 -4 3 -12 -14 -21 -21 -10 -31 -11 -53 -1 l-27 12 29 12 c31 13
40 11 30 -5z m1617 -76 c-3 -9 -8 -14 -10 -11 -3 3 -2 9 2 15 9 16 15 13 8 -4z
m-23 -19 c0 -3 -4 -8 -10 -11 -5 -3 -10 -1 -10 4 0 6 5 11 10 11 6 0 10 -2 10
-4z m-2200 -36 c0 -5 -2 -10 -4 -10 -3 0 -8 5 -11 10 -3 6 -1 10 4 10 6 0 11
-4 11 -10z m2130 -9 c0 -5 -9 -7 -20 -4 -11 3 -20 7 -20 9 0 2 9 4 20 4 11 0
20 -4 20 -9z"/>
<path d="M1968 2368 c5 -71 10 -77 11 -15 0 31 -2 57 -7 57 -4 0 -6 -19 -4
-42z"/>
<path d="M1928 2288 c5 -5 16 -8 23 -6 8 3 3 7 -10 11 -17 4 -21 3 -13 -5z"/>
<path d="M1870 2255 c-16 -19 -10 -19 26 0 25 13 26 15 8 15 -12 0 -27 -7 -34
-15z"/>
<path d="M1751 2226 c2 -2 15 -9 29 -15 24 -11 24 -11 6 3 -16 13 -49 24 -35
12z"/>
<path d="M1753 2195 c0 -7 6 -11 14 -8 7 3 13 6 13 8 0 2 -6 5 -13 8 -8 3 -14
-1 -14 -8z"/>
<path d="M1720 2170 c-9 -6 -10 -10 -3 -10 6 0 15 5 18 10 8 12 4 12 -15 0z"/>
<path d="M1650 2145 c0 -7 30 -13 34 -7 3 4 -4 9 -15 9 -10 1 -19 0 -19 -2z"/>
<path d="M1550 2080 c-9 -6 -10 -10 -3 -10 6 0 15 5 18 10 8 12 4 12 -15 0z"/>
<path d="M1063 1807 l-123 -62 0 -56 c0 -30 3 -59 7 -62 3 -4 25 12 47 35 23
23 44 41 49 40 4 -1 7 5 7 14 0 8 4 13 9 10 5 -3 11 3 14 14 3 11 16 24 29 29
12 6 19 10 15 10 -5 1 13 21 40 46 26 24 44 44 38 44 -5 0 -65 -28 -132 -62z"/>
<path d="M2948 2358 c-36 -38 -69 -76 -72 -84 -3 -8 -10 -13 -15 -12 -5 2 -17
-6 -27 -17 -11 -12 -32 -31 -48 -43 -48 -37 -16 -25 115 41 l124 62 3 54 c2
30 0 57 -5 61 -4 3 -38 -25 -75 -62z"/>
<path d="M2385 1950 c-3 -6 1 -7 9 -4 18 7 21 14 7 14 -6 0 -13 -4 -16 -10z"/>
<path d="M2340 1930 c-9 -6 -10 -10 -3 -10 6 0 15 5 18 10 8 12 4 12 -15 0z"/>
<path d="M2077 1789 c7 -7 15 -10 18 -7 3 3 -2 9 -12 12 -14 6 -15 5 -6 -5z"/>
<path d="M336 1042 c-3 -5 1 -15 9 -22 16 -14 20 -3 6 19 -5 8 -11 9 -15 3z"/>
<path d="M670 540 c0 -5 7 -7 15 -4 8 4 15 8 15 10 0 2 -7 4 -15 4 -8 0 -15
-4 -15 -10z"/>
<path d="M3320 3463 c0 -5 13 -17 28 -27 l27 -19 -24 26 c-26 28 -31 32 -31
20z"/>
<path d="M102 2655 c-7 -14 -12 -31 -12 -38 1 -7 7 3 16 22 17 39 13 54 -4 16z"/>
<path d="M2 2255 c0 -16 2 -22 5 -12 2 9 2 23 0 30 -3 6 -5 -1 -5 -18z"/>
<path d="M91 1694 c0 -11 3 -14 6 -6 3 7 2 16 -1 19 -3 4 -6 -2 -5 -13z"/>
<path d="M55 1679 c-4 -6 -5 -12 -2 -15 2 -3 7 2 10 11 7 17 1 20 -8 4z"/>
<path d="M91 1644 c0 -11 3 -14 6 -6 3 7 2 16 -1 19 -3 4 -6 -2 -5 -13z"/>
<path d="M65 1580 c-7 -23 2 -60 16 -60 5 0 9 7 9 16 0 8 -4 12 -10 9 -5 -3
-10 3 -10 14 0 30 15 26 32 -10 l15 -30 7 32 c3 18 4 34 1 37 -3 3 -5 -2 -5
-11 0 -24 -17 -21 -23 3 -3 11 -10 20 -15 20 -6 0 -14 -9 -17 -20z"/>
<path d="M101 1424 c0 -11 3 -14 6 -6 3 7 2 16 -1 19 -3 4 -6 -2 -5 -13z"/>
<path d="M127 1420 c3 -11 7 -20 9 -20 2 0 4 9 4 20 0 11 -4 20 -9 20 -5 0 -7
-9 -4 -20z"/>
<path d="M190 1355 c0 -5 5 -17 10 -25 5 -8 10 -10 10 -5 0 6 -5 17 -10 25 -5
8 -10 11 -10 5z"/>
<path d="M170 1337 c0 -10 -4 -16 -8 -13 -5 3 -6 -8 -4 -25 2 -16 10 -29 18
-29 23 0 27 26 10 57 -11 20 -15 23 -16 10z m13 -37 c3 -11 1 -20 -4 -20 -5 0
-9 9 -9 20 0 11 2 20 4 20 2 0 6 -9 9 -20z"/>
<path d="M200 1240 c0 -5 5 -10 10 -10 6 0 10 5 10 10 0 6 -4 10 -10 10 -5 0
-10 -4 -10 -10z"/>
<path d="M222 1204 c-17 -19 -15 -29 3 -14 8 7 15 9 15 4 0 -5 5 -2 11 6 9 12
10 11 6 -8 -3 -12 -1 -20 4 -16 15 9 6 37 -11 39 -8 2 -21 -3 -28 -11z"/>
<path d="M270 1025 c0 -8 2 -15 4 -15 2 0 6 7 10 15 3 8 1 15 -4 15 -6 0 -10
-7 -10 -15z"/>
<path d="M411 864 c0 -11 3 -14 6 -6 3 7 2 16 -1 19 -3 4 -6 -2 -5 -13z"/>
<path d="M400 821 c0 -3 9 -21 20 -39 16 -25 25 -31 44 -28 25 4 52 -15 39
-28 -4 -3 8 -1 25 5 35 12 44 24 12 16 -25 -6 -57 32 -37 45 8 5 7 8 -5 8 -10
0 -18 -6 -18 -12 0 -7 -9 -2 -20 12 -17 22 -60 37 -60 21z m56 -48 c-7 -7 -36
23 -36 38 0 7 9 3 21 -10 12 -12 19 -25 15 -28z"/>
<path d="M472 734 c-7 -8 -8 -14 -3 -14 10 0 25 19 20 25 -2 1 -10 -3 -17 -11z"/>
<path d="M3244 588 l-19 -23 23 19 c12 11 22 21 22 23 0 8 -8 2 -26 -19z"/>
<path d="M3169 523 c-13 -16 -12 -17 4 -4 16 13 21 21 13 21 -2 0 -10 -8 -17
-17z"/>
<path d="M872 442 c-9 -26 -8 -29 11 -28 23 1 31 30 12 46 -10 8 -15 4 -23
-18z m28 4 c0 -3 -4 -8 -10 -11 -5 -3 -10 -1 -10 4 0 6 5 11 10 11 6 0 10 -2
10 -4z"/>
<path d="M830 435 c0 -8 5 -15 10 -15 6 0 10 7 10 15 0 8 -4 15 -10 15 -5 0
-10 -7 -10 -15z"/>
<path d="M920 420 c0 -14 7 -20 21 -20 11 0 33 -8 47 -18 40 -28 162 -95 162
-89 0 3 -26 20 -57 38 -32 18 -84 50 -115 71 -52 35 -58 37 -58 18z"/>
<path d="M830 394 c0 -2 14 -10 30 -19 23 -12 30 -12 28 -3 -2 9 7 12 27 11
27 -2 28 -2 7 7 -20 8 -92 11 -92 4z"/>
<path d="M1200 265 c14 -8 30 -14 35 -14 6 0 -1 6 -15 14 -14 8 -29 14 -35 14
-5 0 1 -6 15 -14z"/>
<path d="M1260 240 c8 -5 20 -10 25 -10 6 0 3 5 -5 10 -8 5 -19 10 -25 10 -5
0 -3 -5 5 -10z"/>
<path d="M2878 213 c7 -3 16 -2 19 1 4 3 -2 6 -13 5 -11 0 -14 -3 -6 -6z"/>
<path d="M1271 185 c-34 -12 -34 -12 -8 -17 15 -3 24 -1 21 3 -3 5 2 9 10 9 9
0 16 5 16 10 0 6 -1 9 -2 9 -2 -1 -18 -7 -37 -14z"/>
<path d="M1325 180 c3 -5 -1 -11 -7 -14 -7 -3 -4 -4 8 -1 12 3 26 -1 33 -9 17
-20 66 -30 88 -17 14 8 10 9 -17 5 -28 -5 -32 -3 -20 6 12 10 11 11 -7 7 -12
-3 -27 1 -33 8 -12 14 -53 28 -45 15z"/>
</g>
</svg>
