<?xml version="1.0" encoding="utf-8"?>
<!-- Generator: Adobe Illustrator 26.0.1, SVG Export Plug-In . SVG Version: 6.00 Build 0)  -->
<svg version="1.1" id="Layer_1" xmlns="http://www.w3.org/2000/svg" xmlns:xlink="http://www.w3.org/1999/xlink" x="0px" y="0px"
	 viewBox="0 0 161 161.2" style="enable-background:new 0 0 161 161.2;" xml:space="preserve">
<style type="text/css">
	.st0{display:none;fill:#1D1E2C;}
	.st1{clip-path:url(#SVGID_00000170971689535849075830000010929052805999823286_);}
	.st2{fill:url(#SVGID_00000068642478826894219560000010492359894606147470_);}
</style>
<rect y="-33.8" class="st0" width="732.8" height="195"/>
<g>
	<defs>
		<rect id="SVGID_1_" y="0.3" width="24" height="24"/>
	</defs>
	<clipPath id="SVGID_00000023254029625290370630000016786290805200933259_">
		<use xlink:href="#SVGID_1_"  style="overflow:visible;"/>
	</clipPath>
	<g style="clip-path:url(#SVGID_00000023254029625290370630000016786290805200933259_);">
		
			<linearGradient id="SVGID_00000155868106187400050360000001472035556298192831_" gradientUnits="userSpaceOnUse" x1="2.5281" y1="47.6041" x2="163.5506" y2="47.6041" gradientTransform="matrix(1 0 0 -1 0 128.3404)">
			<stop  offset="0" style="stop-color:#2E3192"/>
			<stop  offset="0.28" style="stop-color:#2968AF"/>
			<stop  offset="0.93" style="stop-color:#1CF1F8"/>
			<stop  offset="1" style="stop-color:#1BFFFF"/>
		</linearGradient>
		<path style="fill:url(#SVGID_00000155868106187400050360000001472035556298192831_);" d="M80.5,6.4v27.9c0,1.6-0.7,3.2-1.8,4.3
			c-0.6,0.6-1.3,1-2,1.3c-0.7,0.3-1.6,0.5-2.4,0.5H46.4c-1.6,0-3.2-0.6-4.3-1.8c-1.1-1.2-1.8-2.7-1.8-4.3V6.4c0-1.6-0.6-3.2-1.8-4.4
			c-1.2-1.2-2.7-1.8-4.4-1.8h-28c-1.6,0-3.2,0.6-4.4,1.8C0.6,3.2,0,4.8,0,6.4v27.9c0,1.6,0.6,3.2,1.8,4.4c1.2,1.2,2.7,1.8,4.4,1.8
			h27.9c1.6,0,3.2,0.7,4.3,1.8c1.2,1.2,1.8,2.7,1.8,4.3v27.9c0,1.6,0.6,3.2,1.8,4.4c1.2,1.2,2.7,1.8,4.4,1.8h27.9
			c0.8,0,1.6,0.2,2.4,0.5c0.8,0.3,1.4,0.8,2,1.3c1.2,1.2,1.8,2.7,1.8,4.3v27.9c0,1.6-0.7,3.2-1.8,4.3v0.1c-0.6,0.6-1.3,1-2,1.3
			c-0.8,0.3-1.6,0.5-2.4,0.5H46.4c-1.6,0-3.2,0.7-4.4,1.8c-1.2,1.2-1.8,2.7-1.8,4.4v27.9c0,1.6,0.6,3.2,1.8,4.4
			c1.2,1.2,2.7,1.8,4.4,1.8h28c1.6,0,3.2-0.6,4.4-1.8c1.2-1.2,1.8-2.7,1.8-4.4v-27.9c0-1.6,0.7-3.2,1.8-4.3c1.2-1.1,2.7-1.8,4.3-1.8
			h68.2c1.6,0,3.2-0.7,4.4-1.8c1.2-1.2,1.8-2.7,1.8-4.4V6.4c0-1.6-0.6-3.2-1.8-4.4c-1.2-1.2-2.7-1.8-4.4-1.8H86.7
			c-0.8,0-1.6,0.2-2.4,0.5c-0.8,0.3-1.4,0.8-2,1.3c-0.6,0.6-1,1.3-1.3,2C80.6,4.8,80.5,5.6,80.5,6.4z M114.5,80.7H86.7
			c-1.6,0-3.2-0.6-4.3-1.8l-0.1-0.1c-1.2-1.2-1.8-2.7-1.8-4.3V46.7c0-1.6,0.7-3.2,1.8-4.3c1.2-1.1,2.7-1.8,4.3-1.8h27.9
			c1.6,0,3.2,0.6,4.4,1.8c1.2,1.2,1.8,2.7,1.8,4.4v28c0,1.6-0.7,3.2-1.8,4.3C117.7,80.1,116.2,80.7,114.5,80.7z"/>
	</g>
</g>
</svg>
