<svg width="200" height="200" viewBox="0 0 200 200" fill="none" xmlns="http://www.w3.org/2000/svg">
<g clip-path="url(#clip0_31_2271)">
<path d="M196.997 124.191C183.641 177.762 129.381 210.365 75.8032 197.006C22.2473 183.65 -10.3555 129.387 3.00608 75.8198C16.3559 22.242 70.6156 -10.3633 124.177 2.9924C177.752 16.3481 210.353 70.6171 196.995 124.192L196.996 124.191H196.997Z" fill="white"/>
<g clip-path="url(#clip1_31_2271)">
<path d="M134.207 120.839C134.207 99.538 116.76 97.1108 102.743 95.1635C87.4662 93.0363 78.822 91.1943 78.822 78.0405C78.822 66.9958 90.3932 63.0769 100.301 63.0769C105.239 62.9172 110.145 63.9336 114.613 66.0424C119.081 68.1512 122.984 71.292 126 75.2057L133.182 69.4097C129.953 65.2568 125.934 61.7832 121.357 59.1885C116.781 56.5937 111.736 54.9291 106.514 54.2902V40H97.2835V53.9477C80.598 54.9594 69.5912 64.3785 69.5912 78.04C69.5912 99.8708 87.2682 102.329 101.472 104.302C116.484 106.391 124.976 108.19 124.976 120.839C124.976 134.834 110.518 136.923 101.899 136.923C86.0709 136.923 79.3842 132.474 73.1825 124.794L66 130.59C69.659 135.412 74.3915 139.314 79.8219 141.988C85.2522 144.661 91.2309 146.032 97.2835 145.991V160H106.514V145.947C123.709 144.543 134.207 135.206 134.207 120.839Z" fill="url(#paint0_linear_31_2271)"/>
</g>
</g>
<defs>
<linearGradient id="paint0_linear_31_2271" x1="67.0703" y1="100.027" x2="135.244" y2="100.027" gradientUnits="userSpaceOnUse">
<stop stop-color="#2E3192"/>
<stop offset="0.28" stop-color="#2968AF"/>
<stop offset="0.93" stop-color="#1CF1F8"/>
<stop offset="1" stop-color="#1BFFFF"/>
</linearGradient>
<clipPath id="clip0_31_2271">
<rect width="200" height="200" fill="white"/>
</clipPath>
<clipPath id="clip1_31_2271">
<rect width="146" height="146" fill="white" transform="translate(27 27)"/>
</clipPath>
</defs>
</svg>
