<?xml version="1.0" encoding="UTF-8"?>
<svg xmlns="http://www.w3.org/2000/svg" xmlns:xlink="http://www.w3.org/1999/xlink" width="1000pt" height="1000pt" viewBox="0 0 1000 1000" version="1.1">
<g id="surface1">
<path style=" stroke:none;fill-rule:nonzero;fill:rgb(21.176471%,32.156863%,80%);fill-opacity:1;" d="M 910.898438 482.304688 C 910.898438 709.257812 726.953125 893.242188 500 893.242188 C 273.046875 893.242188 89.101562 709.257812 89.101562 482.304688 C 89.101562 255.390625 273.046875 71.40625 500 71.40625 C 726.953125 71.40625 910.898438 255.390625 910.898438 482.304688 Z M 910.898438 482.304688 "/>
<path style=" stroke:none;fill-rule:nonzero;fill:rgb(100%,100%,100%);fill-opacity:1;" d="M 492.070312 197.03125 L 393.90625 295.234375 C 390.9375 298.164062 390.9375 302.96875 393.90625 305.9375 L 497.421875 409.453125 L 600.976562 305.9375 C 603.867188 302.96875 603.867188 298.164062 600.976562 295.234375 L 502.734375 197.03125 C 499.804688 194.0625 495.039062 194.0625 492.070312 197.03125 Z M 492.070312 197.03125 "/>
<path style=" stroke:none;fill-rule:nonzero;fill:rgb(100%,100%,100%);fill-opacity:1;" d="M 553.203125 552.109375 L 497.265625 608.046875 L 281.015625 391.757812 C 278.046875 388.789062 278.046875 384.0625 281.015625 381.09375 L 331.523438 330.507812 C 334.492188 327.578125 339.296875 327.578125 342.226562 330.507812 L 553.203125 541.484375 C 556.132812 544.414062 556.132812 549.179688 553.203125 552.109375 Z M 553.203125 552.109375 "/>
<path style=" stroke:none;fill-rule:nonzero;fill:rgb(100%,100%,100%);fill-opacity:1;" d="M 257.421875 444.453125 L 302.382812 489.414062 L 241.132812 550.585938 L 196.210938 505.625 C 187.34375 496.835938 187.34375 482.539062 196.210938 473.789062 L 225.507812 444.453125 C 234.335938 435.625 248.632812 435.625 257.421875 444.453125 Z M 257.421875 444.453125 "/>
<path style=" stroke:none;fill-rule:nonzero;fill:rgb(100%,100%,100%);fill-opacity:1;" d="M 542.1875 761.015625 L 496.835938 806.328125 L 308.398438 617.890625 L 369.609375 556.601562 L 542.109375 729.140625 C 550.976562 737.96875 550.976562 752.226562 542.1875 761.015625 Z M 542.1875 761.015625 "/>
<path style=" stroke:none;fill-rule:nonzero;fill:rgb(82.745098%,82.745098%,82.745098%);fill-opacity:1;" d="M 497.265625 485.546875 L 497.226562 608.046875 L 718.867188 386.40625 L 657.617188 325.15625 Z M 497.265625 485.546875 "/>
<path style=" stroke:none;fill-rule:nonzero;fill:rgb(82.745098%,82.745098%,82.745098%);fill-opacity:1;" d="M 625 555.46875 L 686.25 616.757812 L 508.398438 794.609375 C 504.0625 798.945312 496.679688 795.820312 496.679688 789.765625 L 496.71875 686.601562 C 496.71875 684.765625 497.460938 683.046875 498.75 681.757812 Z M 625 555.46875 "/>
<path style=" stroke:none;fill-rule:nonzero;fill:rgb(82.745098%,82.745098%,82.745098%);fill-opacity:1;" d="M 808.398438 494.609375 L 753.554688 549.492188 L 692.304688 488.28125 L 747.1875 433.359375 C 749.84375 430.625 754.21875 430.625 756.914062 433.359375 L 808.398438 484.882812 C 811.132812 487.539062 811.132812 491.875 808.398438 494.609375 Z M 808.398438 494.609375 "/>
<path style=" stroke:none;fill-rule:nonzero;fill:rgb(82.745098%,82.745098%,82.745098%);fill-opacity:1;" d="M 498.710938 408.164062 L 593.203125 313.632812 C 600.429688 306.40625 600.429688 294.6875 593.203125 287.460938 L 507.265625 201.523438 C 503.671875 197.890625 497.421875 200.507812 497.421875 205.585938 L 497.421875 407.617188 C 497.421875 408.28125 498.203125 408.632812 498.710938 408.164062 Z M 498.710938 408.164062 "/>
</g>
</svg>
